<svg width="19" height="18" viewBox="0 0 19 18" fill="none" xmlns="http://www.w3.org/2000/svg">
<g clip-path="url(#clip0_925_2121)">
<path fill-rule="evenodd" clip-rule="evenodd" d="M8.37851 0.342403C8.83859 0.754104 9.22768 1.15048 9.55475 1.52878C9.88181 1.15048 10.2709 0.754104 10.731 0.342403C11.9311 -0.731519 13.2804 0.172545 13.805 0.758817C14.3296 1.34509 15.2789 2.60713 13.8787 3.86004C12.6584 4.95206 11.5329 5.55572 10.6098 5.83516C10.4387 5.93367 10.204 6.00149 9.91566 6.02377C12.4449 6.30297 16.5 9.05011 16.5 14.7273C16.5 17.7818 11.8333 18 9.5 18C7.16667 18 2.5 17.3455 2.5 14.7273C2.5 8.50804 6.58917 6.22832 9.11607 6.01653C8.86307 5.98883 8.65517 5.92467 8.49965 5.83516C7.57658 5.55572 6.45109 4.95206 5.23075 3.86004C3.83062 2.60713 4.77986 1.34509 5.30449 0.758817C5.82912 0.172545 7.1784 -0.731519 8.37851 0.342403Z" fill="#EDE3D9"/>
<path d="M2.75381 15.7126C3.75753 17.5155 7.49241 18 9.49999 18C11.8333 18 16.5 17.7818 16.5 14.7273C16.5 11.3866 15.0959 9.06054 13.4248 7.65482C14.6203 9.07447 15.5 11.0831 15.5 13.7273C15.5 16.7818 10.8333 17 8.49999 17C6.93019 17 4.30427 16.7037 2.75381 15.7126Z" fill="#102525" fill-opacity="0.1"/>
<path d="M11.0051 5.69981C11.8468 5.37895 12.8276 4.80067 13.8787 3.86004C15.2789 2.60713 14.3296 1.34509 13.805 0.758818C13.6565 0.592886 13.442 0.401499 13.1834 0.236704C13.6336 0.900062 13.9708 1.88283 12.8787 2.86004C11.5 4.5 9.99999 6 9.99999 6C10.5 6 10.874 5.7498 11.0051 5.69981Z" fill="#102525" fill-opacity="0.1"/>
</g>
<defs>
<clipPath id="clip0_925_2121">
<rect width="18" height="18" fill="white" transform="translate(0.5)"/>
</clipPath>
</defs>
</svg>
