<svg width="24" height="33" viewBox="0 0 24 33" fill="none" xmlns="http://www.w3.org/2000/svg">
<path d="M9.17711 22.055L7.91711 15.575C8.87711 15.365 9.80711 15.125 10.7071 14.855C11.6371 14.555 12.4921 14.225 13.2721 13.865C14.0521 13.475 14.7271 13.055 15.2971 12.605C15.8971 12.125 16.3471 11.6 16.6471 11.03C16.9471 10.46 17.0971 9.86001 17.0971 9.23C17.0971 8.42 16.8571 7.73 16.3771 7.16C15.9271 6.59 15.2971 6.17 14.4871 5.9C13.7071 5.6 12.8671 5.45 11.9671 5.45C10.3771 5.45 8.90711 5.855 7.55711 6.665C6.23711 7.44501 5.09711 8.585 4.13711 10.085L0.222107 6.35C1.66211 4.37 3.40211 2.825 5.44211 1.715C7.51211 0.575005 9.79211 0.00500488 12.2821 0.00500488C14.3821 0.00500488 16.2571 0.395004 17.9071 1.175C19.5871 1.955 20.9071 3.035 21.8671 4.415C22.8271 5.765 23.3071 7.295 23.3071 9.005C23.3071 10.055 23.0521 11.09 22.5421 12.11C22.0621 13.13 21.3721 14.075 20.4721 14.945C19.5721 15.785 18.5371 16.535 17.3671 17.195C16.1971 17.855 14.9521 18.395 13.6321 18.815L12.9571 22.055H9.17711ZM7.24211 28.895C7.24211 27.905 7.58711 27.065 8.27711 26.375C8.99711 25.655 10.0021 25.295 11.2921 25.295C12.5821 25.295 13.5721 25.61 14.2621 26.24C14.9521 26.87 15.2971 27.755 15.2971 28.895C15.2971 29.885 14.9371 30.74 14.2171 31.46C13.5271 32.15 12.5521 32.495 11.2921 32.495C9.97211 32.495 8.96711 32.18 8.27711 31.55C7.58711 30.89 7.24211 30.005 7.24211 28.895Z" fill="#F4F2EA"/>
</svg>
