<svg width="192" height="45" viewBox="0 0 192 45" fill="none" xmlns="http://www.w3.org/2000/svg">
<rect x="3.43079" y="3.09082" width="185.951" height="38.6222" stroke="#4E928E" stroke-width="0.75"/>
<path d="M0.375 38.0922V6.52517C3.37276 6.47246 5.44281 5.78331 6.77776 4.63547C8.07883 3.51677 8.63017 2.00747 8.70169 0.375H184.056C184.116 1.92521 184.562 3.37664 185.718 4.48432C186.911 5.62655 188.8 6.34754 191.622 6.49868V38.1187C188.8 38.2699 186.911 38.9908 185.718 40.1331C184.562 41.2408 184.116 42.6922 184.056 44.2424H8.70169C8.63017 42.6099 8.07883 41.1006 6.77776 39.9819C5.44281 38.8341 3.37276 38.1449 0.375 38.0922Z" stroke="#4E928E" stroke-width="0.75"/>
</svg>
