<svg width="263" height="49" viewBox="0 0 263 49" fill="none" xmlns="http://www.w3.org/2000/svg">
<g clip-path="url(#clip0_839_3070)">
<path d="M195.376 16.257L192.013 23.9463H195.435C195.435 21.6466 195.426 19.3459 195.406 17.0443C195.406 16.7819 195.394 16.5106 195.376 16.257Z" fill="#33B174"/>
<path d="M254.962 1.17935H137.95L129.915 12.4184V36.2644L137.95 46.899H254.962L262.997 36.2644V12.4301L254.962 1.17935ZM173.155 37.9036H166.712L162.745 25.0106L162.486 24.9929L158.023 37.9066H152.029C151.842 37.2639 151.687 36.5916 151.452 35.9489C149.964 31.8213 148.476 27.6936 146.931 23.6043C145.741 20.4496 144.5 17.3185 143.253 14.1903C142.777 12.9962 142.238 11.8316 141.185 10.9471H153.339C153.339 11.0002 153.377 11.0739 153.356 11.0887C152.401 11.9024 152.342 12.9608 152.675 14.0193C153.827 17.6369 155.044 21.2456 156.234 24.8632H156.487C156.722 24.2529 156.972 23.6485 157.189 23.0323C157.996 20.7621 158.802 18.4919 159.57 16.2099C159.683 15.867 159.683 15.4973 159.57 15.1544C159.014 13.6537 158.514 12.1117 157.064 10.9442H168.733C168.733 10.9914 168.763 11.0621 168.733 11.0798C167.724 11.8906 167.712 12.9402 168.016 14.0547C168.986 17.6162 169.958 21.1758 170.932 24.7335L171.113 24.763C171.658 23.0913 172.229 21.4255 172.735 19.7508C173.331 17.7047 173.926 15.6497 174.461 13.58C174.759 12.4007 174.521 11.8493 173.604 10.9707H184.317C184.317 10.9707 184.356 11.0533 184.341 11.068C182.88 12.3564 182.219 14.1107 181.55 15.8414C178.971 22.4633 176.415 29.0891 173.881 35.7189C173.622 36.4147 173.405 37.1489 173.155 37.9036ZM193.195 37.6737C194.135 37.2255 194.819 36.5533 194.98 35.5067C195.208 34.2527 195.35 32.985 195.406 31.7122C195.418 30.4385 195.425 29.1609 195.429 27.8793H190.287L187.999 33.1097C187.558 34.7077 186.344 36.2791 188.269 37.9479H177.134C177.208 37.7857 177.229 37.653 177.309 37.5823C178.5 36.5681 179.125 35.1794 179.758 33.8173C183.222 26.3728 185.651 18.9194 189.079 11.4572C189.376 10.8233 189.573 10.8056 190.308 10.8322L193.54 10.7997C193.563 10.7983 193.585 10.7983 193.608 10.7997H194.26L198.212 10.7614L198.173 10.7997H205.315C205.451 10.8168 205.585 10.8484 205.714 10.8941C205.696 10.9973 205.714 11.0621 205.678 11.0887C205.608 11.1603 205.526 11.2209 205.437 11.2685C204.998 11.4986 204.623 11.8327 204.346 12.2412C204.069 12.6496 203.898 13.1197 203.848 13.6095C203.663 14.746 203.555 15.8935 203.524 17.0443C203.488 21.9326 203.479 26.8238 203.524 31.7122C203.577 32.9852 203.719 34.2531 203.949 35.5067C204.107 36.5533 204.792 37.2255 205.735 37.6737H193.195ZM235.3 38.3783C234.836 38.3783 234.372 38.3783 233.908 38.3783C231.473 38.3135 229.045 38.1719 226.712 37.3965C222.82 36.1022 220.332 33.3662 218.677 29.7663C218.575 29.4833 218.45 29.2091 218.302 28.9466C218.15 28.7664 217.94 28.6435 217.707 28.5987C217.707 30.9574 217.644 33.2217 218.18 35.4595C218.275 35.8765 218.46 36.2684 218.722 36.6082C218.984 36.9481 219.317 37.228 219.698 37.429C219.894 37.541 220.082 37.6737 220.272 37.7975C220.251 37.8565 220.228 37.9154 220.204 37.9744L206.86 37.6796C207.803 37.2314 208.485 36.5592 208.645 35.5126C208.876 34.259 209.018 32.9911 209.071 31.7181C209.119 26.8297 209.11 21.9385 209.071 17.0502C209.038 15.8994 208.928 14.752 208.744 13.6154C208.693 13.1255 208.521 12.6557 208.243 12.2477C207.964 11.8398 207.588 11.5064 207.149 11.2774C207.059 11.2298 206.978 11.1691 206.907 11.0975C206.881 11.071 206.89 11.0061 206.875 10.9029C207.004 10.857 207.137 10.8253 207.273 10.8086C211.386 10.7761 215.499 10.7378 219.612 10.7231C221.615 10.6778 223.614 10.9302 225.542 11.4719C228.518 12.3564 230.715 14.0842 231.241 17.2742C231.836 20.8388 230.944 23.849 227.26 25.9069L226.611 26.2814C228.643 30.9014 231.075 35.1912 235.381 38.1837C235.357 38.2456 235.327 38.3105 235.3 38.3783ZM251.218 29.8724C250.451 31.8006 248.927 33.263 246.808 34.1003C245.334 34.6626 243.763 34.9369 242.184 34.9081C241.436 34.9061 240.689 34.8647 239.946 34.7843C238.797 34.6419 237.659 34.4263 236.538 34.1386C236.128 34.0413 235.702 33.9411 235.283 33.8438C235.052 33.7871 234.828 33.7081 234.613 33.6079L234.446 33.5401L234.167 33.434V24.0967L234.925 24.9192L235.095 25.0991C235.217 25.2288 235.342 25.3615 235.461 25.503C237.014 27.4194 238.8 28.6312 240.916 29.1884C241.254 29.2769 241.602 29.3215 241.951 29.3211C242.198 29.3239 242.443 29.2982 242.684 29.2444C242.889 29.2133 243.081 29.1258 243.239 28.9919C243.397 28.858 243.514 28.683 243.576 28.4867C243.616 28.2891 243.599 28.0844 243.528 27.8958C243.456 27.7071 243.333 27.5421 243.172 27.4194C242.533 26.8958 241.834 26.4494 241.089 26.0897C239.526 25.2671 238.008 24.4298 236.663 23.28C233.905 20.8889 233.437 16.3897 235.69 13.639C236.942 12.1289 238.701 11.1158 240.645 10.785C241.626 10.5972 242.622 10.5034 243.621 10.5049C245.878 10.5385 248.115 10.9369 250.242 11.6842L250.54 11.7845V20.7739L249.793 20.0221C249.698 19.9248 249.611 19.8422 249.531 19.7656C249.376 19.6152 249.233 19.4707 249.114 19.3351C248.074 18.0014 246.68 16.9806 245.088 16.3868C244.582 16.2136 244.05 16.125 243.514 16.1244C243.365 16.1244 243.216 16.1244 243.073 16.145C242.931 16.152 242.794 16.1979 242.677 16.2775C242.56 16.3572 242.467 16.4675 242.41 16.5961C242.359 16.7314 242.346 16.8781 242.373 17.0201C242.4 17.1621 242.467 17.2939 242.565 17.401C242.984 17.8563 243.477 18.2398 244.023 18.5361C244.636 18.9017 245.276 19.2555 245.895 19.5975C246.665 20.025 247.463 20.482 248.228 20.9419C249.416 21.6398 250.374 22.6639 250.986 23.8903C251.432 24.8199 251.682 25.8295 251.722 26.8577C251.762 27.886 251.59 28.9116 251.218 29.8724Z" fill="#33B174"/>
<path d="M217.668 16.4133V24.02C219.62 24.2205 221.361 23.4863 222.043 22.195C222.811 20.7474 222.656 18.5744 221.704 17.4423C220.811 16.4045 219.082 15.9563 217.668 16.4133Z" fill="#33B174"/>
<path d="M51.3787 12.3535V45.2921C51.3787 46.2769 51.3787 47.1702 50.1139 47.0818C47.4696 46.873 44.8139 46.8424 42.1653 46.9904C40.9006 47.0818 40.9006 46.2769 40.9006 45.2921V14.7682C40.9006 11.5456 35.6601 7.51824 33.5829 7.51824C32.7705 7.51824 32.3181 7.87794 32.3181 8.68283V45.2921C32.3181 46.2769 32.3181 47.1702 31.0534 47.0818C28.408 46.873 25.7514 46.8425 23.1018 46.9904C21.8371 47.0818 21.8371 46.2769 21.8371 45.2921V14.7682C21.8371 11.5456 16.5072 7.51824 14.4301 7.51824C13.6147 7.51824 13.2397 7.96639 13.2397 8.77128V45.2921C13.2397 46.2769 13.2397 47.1702 11.975 47.0818C9.32959 46.873 6.67295 46.8425 4.02339 46.9904C2.75864 47.0818 2.75864 46.2769 2.75864 45.2921V11.4572C2.75864 8.68283 2.21703 6.98165 0.32139 5.46031C-0.205343 5.01217 -0.116066 4.47557 0.785628 4.20728C3.67819 3.22254 5.48456 2.32625 8.4664 0.448168C9.10026 0.0884726 9.35916 0.35677 10.002 1.07321C11.2667 2.5061 11.9006 3.84758 12.4422 3.84758C13.1653 3.84758 17.4119 0.179871 19.4891 0.179871C20.8431 0.179871 24.185 2.2437 27.1669 4.83232C27.7085 5.19202 28.1608 5.54876 28.4316 5.54876C29.1548 5.54876 36.4665 0.179871 38.5496 0.179871C41.0821 0.179871 51.3787 7.78654 51.3787 12.3535Z" fill="#33B174"/>
<path d="M56.8007 35.6246V13.5122C56.8007 9.38453 68.1835 -0.00292969 71.5254 -0.00292969C75.3197 -0.00292969 87.247 8.50003 87.247 12.5274V34.6399C87.247 38.7675 75.8643 48.155 72.5194 48.155C68.7251 48.155 56.8007 39.652 56.8007 35.6246ZM76.7659 37.6884V15.8443C76.7659 13.6065 69.9899 8.95112 68.4543 8.95112C67.7312 8.95112 67.2788 9.48772 67.2788 10.4725V32.3136C67.2788 34.5514 74.0549 39.2038 75.6827 39.2038C76.3136 39.2127 76.7778 38.6673 76.7778 37.6825L76.7659 37.6884Z" fill="#33B174"/>
<path d="M91.9549 35.6246V13.5122C91.9549 9.39925 103.329 0 106.671 0C110.465 0 122.389 8.50296 122.389 12.5304V34.6428C122.389 38.7704 111.007 48.1579 107.665 48.1579C103.858 48.1549 91.9549 39.652 91.9549 35.6246ZM111.923 37.6884V15.8443C111.923 13.6065 105.147 8.9511 103.611 8.9511C102.888 8.9511 102.436 9.4877 102.436 10.4724V32.3136C102.436 34.5514 109.212 39.2038 110.84 39.2038C111.459 39.2127 111.911 38.6672 111.911 37.6825L111.923 37.6884Z" fill="#33B174"/>
</g>
<defs>
<clipPath id="clip0_839_3070">
<rect width="263" height="48.1549" fill="white"/>
</clipPath>
</defs>
</svg>
