<svg width="1391" height="836" viewBox="0 0 1391 836" fill="none" xmlns="http://www.w3.org/2000/svg">
<g style="mix-blend-mode:screen">
<path d="M560.365 14.9261C583.842 14.9252 607.01 20.2771 628.107 30.5748C649.204 40.8725 667.676 55.845 682.116 74.3536L695.497 91.501" stroke="#163534" stroke-width="1.5" stroke-miterlimit="10"/>
<path d="M695.572 71.2034L685.763 58.6024C664.257 31.0407 632.216 9.15646 596.325 9.15646C560.435 9.15646 596.325 40.1799 596.325 40.1799H136.044L123.516 28.0059H695.82" stroke="#163534" stroke-width="1.5" stroke-miterlimit="10"/>
<path d="M695.503 816.972H93.7886L58.1404 775.269V640.876V203.703V74.792L121.341 0.865448H694.787" stroke="#163534" stroke-width="1.5" stroke-miterlimit="10"/>
<path d="M58.1404 654.937L40.4028 637.062V206.888L59.1098 187.162L77.8167 206.888V637.062L58.1404 654.937Z" stroke="#163534" stroke-width="1.5" stroke-miterlimit="10"/>
<path d="M69.4499 198.067V137.918L59.1098 127.019L47.6213 139.135V199.705" stroke="#163534" stroke-width="1.5" stroke-miterlimit="10"/>
<path d="M69.4499 644.038V704.181L59.1098 715.085L47.6213 702.969V644.338" stroke="#163534" stroke-width="1.5" stroke-miterlimit="10"/>
<path d="M73.2293 59.9006L0.865479 118.89V731.171L73.2293 790.16H1317.77" stroke="#163534" stroke-width="1.5" stroke-miterlimit="10"/>
<path d="M197.121 796.836H161.957" stroke="#163534" stroke-width="1.5" stroke-miterlimit="10"/>
<path d="M145.299 796.836H133.268" stroke="#163534" stroke-width="1.5" stroke-miterlimit="10"/>
<path d="M197.121 53.2251H161.957" stroke="#163534" stroke-width="1.5" stroke-miterlimit="10"/>
<path d="M145.299 53.2251H133.268" stroke="#163534" stroke-width="1.5" stroke-miterlimit="10"/>
<path d="M59.1098 640.876L40.4028 622.736" stroke="#163534" stroke-width="1.5" stroke-miterlimit="10"/>
<path d="M59.1098 627.098L40.4028 608.958" stroke="#163534" stroke-width="1.5" stroke-miterlimit="10"/>
<path d="M59.1098 613.314L40.4028 595.175" stroke="#163534" stroke-width="1.5" stroke-miterlimit="10"/>
<path d="M59.1098 599.536L40.4028 581.391" stroke="#163534" stroke-width="1.5" stroke-miterlimit="10"/>
<path d="M59.1098 585.753L40.4028 567.613" stroke="#163534" stroke-width="1.5" stroke-miterlimit="10"/>
<path d="M59.1098 571.969L40.4028 553.829" stroke="#163534" stroke-width="1.5" stroke-miterlimit="10"/>
<path d="M59.1098 558.191L40.4028 540.051" stroke="#163534" stroke-width="1.5" stroke-miterlimit="10"/>
<path d="M59.1098 544.407L40.4028 526.268" stroke="#163534" stroke-width="1.5" stroke-miterlimit="10"/>
<path d="M59.1098 530.624L40.4028 512.484" stroke="#163534" stroke-width="1.5" stroke-miterlimit="10"/>
<path d="M59.1098 516.846L40.4028 498.706" stroke="#163534" stroke-width="1.5" stroke-miterlimit="10"/>
<path d="M59.1098 503.062L40.4028 484.922" stroke="#163534" stroke-width="1.5" stroke-miterlimit="10"/>
<path d="M59.1098 490.265L40.4028 472.125" stroke="#163534" stroke-width="1.5" stroke-miterlimit="10"/>
<path d="M59.1098 477.468L40.4028 459.328" stroke="#163534" stroke-width="1.5" stroke-miterlimit="10"/>
<path d="M59.1098 464.671L40.4028 446.531" stroke="#163534" stroke-width="1.5" stroke-miterlimit="10"/>
<path d="M59.1098 451.874L40.4028 433.734" stroke="#163534" stroke-width="1.5" stroke-miterlimit="10"/>
<path d="M59.1098 439.077L40.4028 420.937" stroke="#163534" stroke-width="1.5" stroke-miterlimit="10"/>
<path d="M59.1098 201.223L40.4028 219.362" stroke="#163534" stroke-width="1.5" stroke-miterlimit="10"/>
<path d="M59.1098 215.006L40.4028 233.146" stroke="#163534" stroke-width="1.5" stroke-miterlimit="10"/>
<path d="M59.1098 228.784L40.4028 246.924" stroke="#163534" stroke-width="1.5" stroke-miterlimit="10"/>
<path d="M59.1098 242.568L40.4028 260.708" stroke="#163534" stroke-width="1.5" stroke-miterlimit="10"/>
<path d="M59.1098 256.352L40.4028 274.491" stroke="#163534" stroke-width="1.5" stroke-miterlimit="10"/>
<path d="M59.1098 270.13L40.4028 288.269" stroke="#163534" stroke-width="1.5" stroke-miterlimit="10"/>
<path d="M59.1098 283.913L40.4028 302.053" stroke="#163534" stroke-width="1.5" stroke-miterlimit="10"/>
<path d="M59.1098 297.691L40.4028 315.831" stroke="#163534" stroke-width="1.5" stroke-miterlimit="10"/>
<path d="M59.1098 311.475L40.4028 329.615" stroke="#163534" stroke-width="1.5" stroke-miterlimit="10"/>
<path d="M59.1098 325.259L40.4028 343.398" stroke="#163534" stroke-width="1.5" stroke-miterlimit="10"/>
<path d="M59.1098 339.036L40.4028 357.176" stroke="#163534" stroke-width="1.5" stroke-miterlimit="10"/>
<path d="M59.1098 351.834L40.4028 369.973" stroke="#163534" stroke-width="1.5" stroke-miterlimit="10"/>
<path d="M59.1098 364.631L40.4028 382.77" stroke="#163534" stroke-width="1.5" stroke-miterlimit="10"/>
<path d="M59.1098 377.434L40.4028 395.573" stroke="#163534" stroke-width="1.5" stroke-miterlimit="10"/>
<path d="M59.1098 390.231L40.4028 408.37" stroke="#163534" stroke-width="1.5" stroke-miterlimit="10"/>
<path d="M59.1098 403.028L40.4028 421.168" stroke="#163534" stroke-width="1.5" stroke-miterlimit="10"/>
<path d="M59.1097 640.876L77.8167 622.736" stroke="#163534" stroke-width="1.5" stroke-miterlimit="10"/>
<path d="M59.1097 627.098L77.8167 608.958" stroke="#163534" stroke-width="1.5" stroke-miterlimit="10"/>
<path d="M59.1097 613.314L77.8167 595.175" stroke="#163534" stroke-width="1.5" stroke-miterlimit="10"/>
<path d="M59.1097 599.536L77.8167 581.391" stroke="#163534" stroke-width="1.5" stroke-miterlimit="10"/>
<path d="M59.1097 585.753L77.8167 567.613" stroke="#163534" stroke-width="1.5" stroke-miterlimit="10"/>
<path d="M59.1097 571.969L77.8167 553.829" stroke="#163534" stroke-width="1.5" stroke-miterlimit="10"/>
<path d="M59.1097 558.191L77.8167 540.051" stroke="#163534" stroke-width="1.5" stroke-miterlimit="10"/>
<path d="M59.1097 544.407L77.8167 526.268" stroke="#163534" stroke-width="1.5" stroke-miterlimit="10"/>
<path d="M59.1097 530.624L77.8167 512.484" stroke="#163534" stroke-width="1.5" stroke-miterlimit="10"/>
<path d="M59.1097 516.846L77.8167 498.706" stroke="#163534" stroke-width="1.5" stroke-miterlimit="10"/>
<path d="M59.1097 503.062L77.8167 484.922" stroke="#163534" stroke-width="1.5" stroke-miterlimit="10"/>
<path d="M59.1097 490.265L77.8167 472.125" stroke="#163534" stroke-width="1.5" stroke-miterlimit="10"/>
<path d="M59.1097 477.468L77.8167 459.328" stroke="#163534" stroke-width="1.5" stroke-miterlimit="10"/>
<path d="M59.1097 464.671L77.8167 446.531" stroke="#163534" stroke-width="1.5" stroke-miterlimit="10"/>
<path d="M59.1097 451.874L77.8167 433.734" stroke="#163534" stroke-width="1.5" stroke-miterlimit="10"/>
<path d="M59.1097 439.077L77.8167 420.937" stroke="#163534" stroke-width="1.5" stroke-miterlimit="10"/>
<path d="M59.1097 201.223L77.8167 219.362" stroke="#163534" stroke-width="1.5" stroke-miterlimit="10"/>
<path d="M59.1097 215.006L77.8167 233.146" stroke="#163534" stroke-width="1.5" stroke-miterlimit="10"/>
<path d="M59.1097 228.784L77.8167 246.924" stroke="#163534" stroke-width="1.5" stroke-miterlimit="10"/>
<path d="M59.1097 242.568L77.8167 260.708" stroke="#163534" stroke-width="1.5" stroke-miterlimit="10"/>
<path d="M59.1097 256.352L77.8167 274.491" stroke="#163534" stroke-width="1.5" stroke-miterlimit="10"/>
<path d="M59.1097 270.13L77.8167 288.269" stroke="#163534" stroke-width="1.5" stroke-miterlimit="10"/>
<path d="M59.1097 283.913L77.8167 302.053" stroke="#163534" stroke-width="1.5" stroke-miterlimit="10"/>
<path d="M59.1097 297.691L77.8167 315.831" stroke="#163534" stroke-width="1.5" stroke-miterlimit="10"/>
<path d="M59.1097 311.475L77.8167 329.615" stroke="#163534" stroke-width="1.5" stroke-miterlimit="10"/>
<path d="M59.1097 325.259L77.8167 343.398" stroke="#163534" stroke-width="1.5" stroke-miterlimit="10"/>
<path d="M59.1097 339.036L77.8167 357.176" stroke="#163534" stroke-width="1.5" stroke-miterlimit="10"/>
<path d="M59.1097 351.834L77.8167 369.973" stroke="#163534" stroke-width="1.5" stroke-miterlimit="10"/>
<path d="M59.1097 364.631L77.8167 382.77" stroke="#163534" stroke-width="1.5" stroke-miterlimit="10"/>
<path d="M59.1097 377.434L77.8167 395.573" stroke="#163534" stroke-width="1.5" stroke-miterlimit="10"/>
<path d="M59.1097 390.231L77.8167 408.37" stroke="#163534" stroke-width="1.5" stroke-miterlimit="10"/>
<path d="M59.1097 403.028L77.8167 421.168" stroke="#163534" stroke-width="1.5" stroke-miterlimit="10"/>
<path d="M20.3746 662.328C12.6598 654.25 25.383 642.272 36.1848 647.286" stroke="#163534" stroke-width="1.5" stroke-miterlimit="10"/>
<path d="M20.3746 629.239C12.6598 637.316 25.383 649.288 36.1848 644.274" stroke="#163534" stroke-width="1.5" stroke-miterlimit="10"/>
<path d="M31.0146 639.884V651.042" stroke="#163534" stroke-width="1.5" stroke-miterlimit="10"/>
<path d="M18.4993 646.132H8.10718" stroke="#163534" stroke-width="1.5" stroke-miterlimit="10"/>
<path d="M20.3746 618.028C12.6598 609.951 25.383 597.973 36.1848 602.987" stroke="#163534" stroke-width="1.5" stroke-miterlimit="10"/>
<path d="M20.3746 584.933C12.6598 593.011 25.383 604.989 36.1848 599.975" stroke="#163534" stroke-width="1.5" stroke-miterlimit="10"/>
<path d="M31.0146 595.584V606.743" stroke="#163534" stroke-width="1.5" stroke-miterlimit="10"/>
<path d="M18.4993 601.833H8.10718" stroke="#163534" stroke-width="1.5" stroke-miterlimit="10"/>
<path d="M20.3746 573.729C12.6598 565.651 25.383 553.674 36.1848 558.687" stroke="#163534" stroke-width="1.5" stroke-miterlimit="10"/>
<path d="M20.3746 540.651C12.6598 548.729 25.383 560.707 36.1848 555.693" stroke="#163534" stroke-width="1.5" stroke-miterlimit="10"/>
<path d="M31.0146 551.285V562.443" stroke="#163534" stroke-width="1.5" stroke-miterlimit="10"/>
<path d="M18.4993 557.533H8.10718" stroke="#163534" stroke-width="1.5" stroke-miterlimit="10"/>
<path d="M20.3746 529.424C12.6598 521.346 25.383 509.374 36.1848 514.388" stroke="#163534" stroke-width="1.5" stroke-miterlimit="10"/>
<path d="M20.3746 496.335C12.6598 504.412 25.383 516.39 36.1848 511.376" stroke="#163534" stroke-width="1.5" stroke-miterlimit="10"/>
<path d="M31.0146 506.985V518.144" stroke="#163534" stroke-width="1.5" stroke-miterlimit="10"/>
<path d="M18.4993 513.234H8.10718" stroke="#163534" stroke-width="1.5" stroke-miterlimit="10"/>
<path d="M20.3746 485.124C12.6598 477.047 25.383 465.075 36.1848 470.088" stroke="#163534" stroke-width="1.5" stroke-miterlimit="10"/>
<path d="M20.3746 452.035C12.6598 460.113 25.383 472.091 36.1848 467.077" stroke="#163534" stroke-width="1.5" stroke-miterlimit="10"/>
<path d="M31.0146 462.686V473.845" stroke="#163534" stroke-width="1.5" stroke-miterlimit="10"/>
<path d="M18.4993 468.935H8.10718" stroke="#163534" stroke-width="1.5" stroke-miterlimit="10"/>
<path d="M20.3746 440.836C12.6598 432.759 25.383 420.787 36.1848 425.801" stroke="#163534" stroke-width="1.5" stroke-miterlimit="10"/>
<path d="M20.3746 407.736C12.6598 415.813 25.383 427.785 36.1848 422.777" stroke="#163534" stroke-width="1.5" stroke-miterlimit="10"/>
<path d="M31.0146 418.387V429.545" stroke="#163534" stroke-width="1.5" stroke-miterlimit="10"/>
<path d="M18.4993 424.635H8.10718" stroke="#163534" stroke-width="1.5" stroke-miterlimit="10"/>
<path d="M20.3746 396.525C12.6598 388.448 25.383 376.476 36.1848 381.484" stroke="#163534" stroke-width="1.5" stroke-miterlimit="10"/>
<path d="M20.3746 363.436C12.6598 371.514 25.383 383.486 36.1848 378.472" stroke="#163534" stroke-width="1.5" stroke-miterlimit="10"/>
<path d="M31.0146 374.087V385.246" stroke="#163534" stroke-width="1.5" stroke-miterlimit="10"/>
<path d="M18.4993 380.33H8.10718" stroke="#163534" stroke-width="1.5" stroke-miterlimit="10"/>
<path d="M20.3746 352.226C12.6598 344.148 25.383 332.171 36.1848 337.185" stroke="#163534" stroke-width="1.5" stroke-miterlimit="10"/>
<path d="M20.3746 319.137C12.6598 327.215 25.383 339.186 36.1848 334.173" stroke="#163534" stroke-width="1.5" stroke-miterlimit="10"/>
<path d="M31.0146 329.782V340.94" stroke="#163534" stroke-width="1.5" stroke-miterlimit="10"/>
<path d="M18.4993 336.03H8.10718" stroke="#163534" stroke-width="1.5" stroke-miterlimit="10"/>
<path d="M20.3746 307.926C12.6598 299.849 25.383 287.871 36.1848 292.885" stroke="#163534" stroke-width="1.5" stroke-miterlimit="10"/>
<path d="M20.3746 274.838C12.6598 282.915 25.383 294.887 36.1848 289.873" stroke="#163534" stroke-width="1.5" stroke-miterlimit="10"/>
<path d="M31.0146 285.483V296.641" stroke="#163534" stroke-width="1.5" stroke-miterlimit="10"/>
<path d="M18.4993 291.731H8.10718" stroke="#163534" stroke-width="1.5" stroke-miterlimit="10"/>
<path d="M20.3746 263.627C12.6598 255.55 25.383 243.572 36.1848 248.586" stroke="#163534" stroke-width="1.5" stroke-miterlimit="10"/>
<path d="M20.3746 230.532C12.6598 238.61 25.383 250.588 36.1848 245.574" stroke="#163534" stroke-width="1.5" stroke-miterlimit="10"/>
<path d="M31.0146 241.183V252.342" stroke="#163534" stroke-width="1.5" stroke-miterlimit="10"/>
<path d="M18.4993 247.432H8.10718" stroke="#163534" stroke-width="1.5" stroke-miterlimit="10"/>
<path d="M20.3746 219.328C12.6598 211.25 25.383 199.272 36.1848 204.286" stroke="#163534" stroke-width="1.5" stroke-miterlimit="10"/>
<path d="M20.3746 186.233C12.6598 194.31 25.383 206.288 36.1848 201.274" stroke="#163534" stroke-width="1.5" stroke-miterlimit="10"/>
<path d="M31.0146 196.884V208.042" stroke="#163534" stroke-width="1.5" stroke-miterlimit="10"/>
<path d="M18.4993 203.132H8.10718" stroke="#163534" stroke-width="1.5" stroke-miterlimit="10"/>
<path d="M667.754 21.3361C681.274 8.46401 701.221 29.7021 692.86 47.7265" stroke="#163534" stroke-width="1.5" stroke-miterlimit="10"/>
<path d="M722.998 21.3361C709.478 8.46401 689.531 29.7021 697.892 47.7265" stroke="#163534" stroke-width="1.5" stroke-miterlimit="10"/>
<path d="M667.887 21.3362C681.302 21.3362 701.354 29.7021 692.993 47.7265" stroke="#163534" stroke-width="1.5" stroke-miterlimit="10"/>
<path d="M723.061 21.3362C709.646 21.3362 689.594 29.7021 697.955 47.7265" stroke="#163534" stroke-width="1.5" stroke-miterlimit="10"/>
<path d="M705.22 39.101H686.588" stroke="#163534" stroke-width="1.5" stroke-miterlimit="10"/>
<path d="M694.787 18.2148V0.865448" stroke="#163534" stroke-width="1.5" stroke-miterlimit="10"/>
<path d="M691.066 17.5398L682.872 6.13315" stroke="#163534" stroke-width="1.5" stroke-miterlimit="10"/>
<path d="M698.509 17.5398L706.703 6.13315" stroke="#163534" stroke-width="1.5" stroke-miterlimit="10"/>
<path d="M133.268 28.0059L145.299 40.1799" stroke="#163534" stroke-width="1.5" stroke-miterlimit="10"/>
<path d="M143.095 28.0059L155.126 40.1799" stroke="#163534" stroke-width="1.5" stroke-miterlimit="10"/>
<path d="M152.927 28.0059L164.958 40.1799" stroke="#163534" stroke-width="1.5" stroke-miterlimit="10"/>
<path d="M162.76 28.0059L174.79 40.1799" stroke="#163534" stroke-width="1.5" stroke-miterlimit="10"/>
<path d="M172.586 28.0059L184.617 40.1799" stroke="#163534" stroke-width="1.5" stroke-miterlimit="10"/>
<path d="M182.418 28.0059L194.449 40.1799" stroke="#163534" stroke-width="1.5" stroke-miterlimit="10"/>
<path d="M192.251 28.0059L204.282 40.1799" stroke="#163534" stroke-width="1.5" stroke-miterlimit="10"/>
<path d="M202.083 28.0059L214.114 40.1799" stroke="#163534" stroke-width="1.5" stroke-miterlimit="10"/>
<path d="M211.91 28.0059L223.941 40.1799" stroke="#163534" stroke-width="1.5" stroke-miterlimit="10"/>
<path d="M221.742 28.0059L233.773 40.1799" stroke="#163534" stroke-width="1.5" stroke-miterlimit="10"/>
<path d="M231.575 28.0059L243.605 40.1799" stroke="#163534" stroke-width="1.5" stroke-miterlimit="10"/>
<path d="M241.401 28.0059L253.432 40.1799" stroke="#163534" stroke-width="1.5" stroke-miterlimit="10"/>
<path d="M251.234 28.0059L263.264 40.1799" stroke="#163534" stroke-width="1.5" stroke-miterlimit="10"/>
<path d="M261.066 28.0059L273.097 40.1799" stroke="#163534" stroke-width="1.5" stroke-miterlimit="10"/>
<path d="M270.898 28.0059L282.929 40.1799" stroke="#163534" stroke-width="1.5" stroke-miterlimit="10"/>
<path d="M280.725 28.0059L292.756 40.1799" stroke="#163534" stroke-width="1.5" stroke-miterlimit="10"/>
<path d="M290.557 28.0059L302.588 40.1799" stroke="#163534" stroke-width="1.5" stroke-miterlimit="10"/>
<path d="M300.39 28.0059L312.421 40.1799" stroke="#163534" stroke-width="1.5" stroke-miterlimit="10"/>
<path d="M310.216 28.0059L322.247 40.1799" stroke="#163534" stroke-width="1.5" stroke-miterlimit="10"/>
<path d="M320.049 28.0059L332.08 40.1799" stroke="#163534" stroke-width="1.5" stroke-miterlimit="10"/>
<path d="M329.881 28.0059L341.912 40.1799" stroke="#163534" stroke-width="1.5" stroke-miterlimit="10"/>
<path d="M339.714 28.0059L351.744 40.1799" stroke="#163534" stroke-width="1.5" stroke-miterlimit="10"/>
<path d="M349.54 28.0059L361.571 40.1799" stroke="#163534" stroke-width="1.5" stroke-miterlimit="10"/>
<path d="M359.373 28.0059L371.403 40.1799" stroke="#163534" stroke-width="1.5" stroke-miterlimit="10"/>
<path d="M369.205 28.0059L381.236 40.1799" stroke="#163534" stroke-width="1.5" stroke-miterlimit="10"/>
<path d="M379.032 28.0059L391.062 40.1799" stroke="#163534" stroke-width="1.5" stroke-miterlimit="10"/>
<path d="M388.864 28.0059L400.895 40.1799" stroke="#163534" stroke-width="1.5" stroke-miterlimit="10"/>
<path d="M398.696 28.0059L410.727 40.1799" stroke="#163534" stroke-width="1.5" stroke-miterlimit="10"/>
<path d="M408.523 28.0059L420.554 40.1799" stroke="#163534" stroke-width="1.5" stroke-miterlimit="10"/>
<path d="M418.355 28.0059L430.386 40.1799" stroke="#163534" stroke-width="1.5" stroke-miterlimit="10"/>
<path d="M428.188 28.0059L440.219 40.1799" stroke="#163534" stroke-width="1.5" stroke-miterlimit="10"/>
<path d="M438.02 28.0059L450.051 40.1799" stroke="#163534" stroke-width="1.5" stroke-miterlimit="10"/>
<path d="M447.847 28.0059L459.878 40.1799" stroke="#163534" stroke-width="1.5" stroke-miterlimit="10"/>
<path d="M457.679 28.0059L469.71 40.1799" stroke="#163534" stroke-width="1.5" stroke-miterlimit="10"/>
<path d="M467.512 28.0059L479.542 40.1799" stroke="#163534" stroke-width="1.5" stroke-miterlimit="10"/>
<path d="M477.338 28.0059L489.369 40.1799" stroke="#163534" stroke-width="1.5" stroke-miterlimit="10"/>
<path d="M487.171 28.0059L499.201 40.1799" stroke="#163534" stroke-width="1.5" stroke-miterlimit="10"/>
<path d="M497.003 28.0059L509.034 40.1799" stroke="#163534" stroke-width="1.5" stroke-miterlimit="10"/>
<path d="M506.835 28.0059L518.866 40.1799" stroke="#163534" stroke-width="1.5" stroke-miterlimit="10"/>
<path d="M516.662 28.0059L528.693 40.1799" stroke="#163534" stroke-width="1.5" stroke-miterlimit="10"/>
<path d="M526.494 28.0059L538.525 40.1799" stroke="#163534" stroke-width="1.5" stroke-miterlimit="10"/>
<path d="M536.327 28.0059L548.358 40.1799" stroke="#163534" stroke-width="1.5" stroke-miterlimit="10"/>
<path d="M546.153 28.0059L558.184 40.1799" stroke="#163534" stroke-width="1.5" stroke-miterlimit="10"/>
<path d="M555.986 28.0059L568.016 40.1799" stroke="#163534" stroke-width="1.5" stroke-miterlimit="10"/>
<path d="M565.818 28.0059L577.849 40.1799" stroke="#163534" stroke-width="1.5" stroke-miterlimit="10"/>
<path d="M575.65 28.0059L587.681 40.1799" stroke="#163534" stroke-width="1.5" stroke-miterlimit="10"/>
<path d="M695.503 814.323C716.654 814.323 733.8 797.179 733.8 776.03C733.8 754.881 716.654 737.737 695.503 737.737C674.352 737.737 657.206 754.881 657.206 776.03C657.206 797.179 674.352 814.323 695.503 814.323Z" stroke="#163534" stroke-width="1.5" stroke-miterlimit="10"/>
<path d="M48.2965 72.888C61.9965 72.888 73.1025 61.783 73.1025 48.0843C73.1025 34.3856 61.9965 23.2805 48.2965 23.2805C34.5965 23.2805 23.4905 34.3856 23.4905 48.0843C23.4905 61.783 34.5965 72.888 48.2965 72.888Z" stroke="#163534" stroke-width="1.5" stroke-miterlimit="10"/>
<path d="M22.0883 72.8881C25.6989 72.8881 28.6259 69.9613 28.6259 66.351C28.6259 62.7408 25.6989 59.814 22.0883 59.814C18.4776 59.814 15.5507 62.7408 15.5507 66.351C15.5507 69.9613 18.4776 72.8881 22.0883 72.8881Z" stroke="#163534" stroke-width="1.5" stroke-miterlimit="10"/>
<path d="M66.709 28.0059C70.3196 28.0059 73.2466 25.0792 73.2466 21.4689C73.2466 17.8586 70.3196 14.9319 66.709 14.9319C63.0984 14.9319 60.1714 17.8586 60.1714 21.4689C60.1714 25.0792 63.0984 28.0059 66.709 28.0059Z" stroke="#163534" stroke-width="1.5" stroke-miterlimit="10"/>
<path d="M65.0761 66.351L30.1665 31.4446" stroke="#163534" stroke-width="1.5" stroke-miterlimit="10"/>
<path d="M13.3062 121.013C13.3062 121.013 66.9688 70.436 81.7635 85.2064C67.2342 70.6784 123.47 14.9261 123.47 14.9261" stroke="#163534" stroke-width="1.5" stroke-miterlimit="10"/>
<path d="M48.2965 826.78C61.9965 826.78 73.1025 815.675 73.1025 801.976C73.1025 788.278 61.9965 777.173 48.2965 777.173C34.5965 777.173 23.4905 788.278 23.4905 801.976C23.4905 815.675 34.5965 826.78 48.2965 826.78Z" stroke="#163534" stroke-width="1.5" stroke-miterlimit="10"/>
<path d="M22.0883 790.247C25.6989 790.247 28.6259 787.32 28.6259 783.71C28.6259 780.099 25.6989 777.173 22.0883 777.173C18.4776 777.173 15.5507 780.099 15.5507 783.71C15.5507 787.32 18.4776 790.247 22.0883 790.247Z" stroke="#163534" stroke-width="1.5" stroke-miterlimit="10"/>
<path d="M66.709 835.129C70.3196 835.129 73.2466 832.202 73.2466 828.592C73.2466 824.981 70.3196 822.055 66.709 822.055C63.0984 822.055 60.1714 824.981 60.1714 828.592C60.1714 832.202 63.0984 835.129 66.709 835.129Z" stroke="#163534" stroke-width="1.5" stroke-miterlimit="10"/>
<path d="M65.0761 783.71L30.1665 818.622" stroke="#163534" stroke-width="1.5" stroke-miterlimit="10"/>
<path d="M13.3062 729.048C13.3062 729.048 66.9688 779.625 81.7635 764.854C67.2342 779.382 123.47 835.135 123.47 835.135" stroke="#163534" stroke-width="1.5" stroke-miterlimit="10"/>
<path d="M1342.7 72.888C1356.4 72.888 1367.51 61.783 1367.51 48.0843C1367.51 34.3856 1356.4 23.2805 1342.7 23.2805C1329 23.2805 1317.9 34.3856 1317.9 48.0843C1317.9 61.783 1329 72.888 1342.7 72.888Z" stroke="#163534" stroke-width="1.5" stroke-miterlimit="10"/>
<path d="M1368.91 72.8881C1372.52 72.8881 1375.45 69.9613 1375.45 66.351C1375.45 62.7408 1372.52 59.814 1368.91 59.814C1365.3 59.814 1362.37 62.7408 1362.37 66.351C1362.37 69.9613 1365.3 72.8881 1368.91 72.8881Z" stroke="#163534" stroke-width="1.5" stroke-miterlimit="10"/>
<path d="M1324.3 28.0059C1327.91 28.0059 1330.83 25.0792 1330.83 21.4689C1330.83 17.8586 1327.91 14.9319 1324.3 14.9319C1320.69 14.9319 1317.76 17.8586 1317.76 21.4689C1317.76 25.0792 1320.69 28.0059 1324.3 28.0059Z" stroke="#163534" stroke-width="1.5" stroke-miterlimit="10"/>
<path d="M1325.92 66.351L1360.84 31.4446" stroke="#163534" stroke-width="1.5" stroke-miterlimit="10"/>
<path d="M1377.7 121.013C1377.7 121.013 1324.04 70.436 1309.24 85.2064C1323.77 70.6784 1267.54 14.9261 1267.54 14.9261" stroke="#163534" stroke-width="1.5" stroke-miterlimit="10"/>
<path d="M1342.7 826.78C1356.4 826.78 1367.51 815.675 1367.51 801.976C1367.51 788.278 1356.4 777.173 1342.7 777.173C1329 777.173 1317.9 788.278 1317.9 801.976C1317.9 815.675 1329 826.78 1342.7 826.78Z" stroke="#163534" stroke-width="1.5" stroke-miterlimit="10"/>
<path d="M1368.91 790.247C1372.52 790.247 1375.45 787.32 1375.45 783.71C1375.45 780.099 1372.52 777.173 1368.91 777.173C1365.3 777.173 1362.37 780.099 1362.37 783.71C1362.37 787.32 1365.3 790.247 1368.91 790.247Z" stroke="#163534" stroke-width="1.5" stroke-miterlimit="10"/>
<path d="M1324.3 835.129C1327.91 835.129 1330.83 832.202 1330.83 828.592C1330.83 824.981 1327.91 822.055 1324.3 822.055C1320.69 822.055 1317.76 824.981 1317.76 828.592C1317.76 832.202 1320.69 835.129 1324.3 835.129Z" stroke="#163534" stroke-width="1.5" stroke-miterlimit="10"/>
<path d="M1325.92 783.71L1360.84 818.622" stroke="#163534" stroke-width="1.5" stroke-miterlimit="10"/>
<path d="M1377.7 729.048C1377.7 729.048 1324.04 779.625 1309.24 764.854C1323.77 779.382 1267.54 835.135 1267.54 835.135" stroke="#163534" stroke-width="1.5" stroke-miterlimit="10"/>
<path d="M830.641 14.9261C807.164 14.9252 783.996 20.2771 762.899 30.5748C741.801 40.8725 723.33 55.845 708.89 74.3536L695.509 91.501" stroke="#163534" stroke-width="1.5" stroke-miterlimit="10"/>
<path d="M695.503 91.5183L708.884 74.3709C723.324 55.8623 741.795 40.8898 762.893 30.5921C783.99 20.2944 807.158 14.9426 830.635 14.9435H1307.33L1377.72 85.3333V764.797L1307.33 835.187H830.64C807.164 835.187 783.996 829.834 762.899 819.537C741.802 809.239 723.331 794.267 708.89 775.759L695.509 758.606L682.127 775.759C667.686 794.267 649.215 809.239 628.118 819.537C607.021 829.834 583.853 835.187 560.377 835.187H83.6906L13.2944 764.797V85.2986L83.6906 14.9088H560.377C583.853 14.9079 607.021 20.2597 628.119 30.5575C649.216 40.8552 667.687 55.8277 682.127 74.3363L695.509 91.4837" stroke="#163534" stroke-width="1.5" stroke-miterlimit="10"/>
<path d="M695.434 71.2034L705.243 58.6024C726.743 31.0407 758.79 9.15646 794.71 9.15646C830.629 9.15646 794.71 40.1799 794.71 40.1799H1255.01L1267.54 28.0059H695.237" stroke="#163534" stroke-width="1.5" stroke-miterlimit="10"/>
<path d="M695.503 816.972H1297.21L1332.87 775.269V640.876V203.703V74.792L1269.66 0.865448H694.787" stroke="#163534" stroke-width="1.5" stroke-miterlimit="10"/>
<path d="M1332.87 654.937L1350.6 637.062V206.888L1331.9 187.162L1313.19 206.888V637.062L1332.87 654.937Z" stroke="#163534" stroke-width="1.5" stroke-miterlimit="10"/>
<path d="M1321.56 198.067V137.918L1331.9 127.019L1343.38 139.135V199.705" stroke="#163534" stroke-width="1.5" stroke-miterlimit="10"/>
<path d="M1321.56 644.038V704.181L1331.9 715.085L1343.38 702.969V644.338" stroke="#163534" stroke-width="1.5" stroke-miterlimit="10"/>
<path d="M1317.77 790.16L1390.13 731.171V118.89L1317.77 59.9006H73.2294" stroke="#163534" stroke-width="1.5" stroke-miterlimit="10"/>
<path d="M1193.88 796.836H1229.05" stroke="#163534" stroke-width="1.5" stroke-miterlimit="10"/>
<path d="M1245.71 796.836H1257.74" stroke="#163534" stroke-width="1.5" stroke-miterlimit="10"/>
<path d="M1193.88 53.2251H1229.05" stroke="#163534" stroke-width="1.5" stroke-miterlimit="10"/>
<path d="M1245.71 53.2251H1257.74" stroke="#163534" stroke-width="1.5" stroke-miterlimit="10"/>
<path d="M1331.89 640.876L1350.6 622.736" stroke="#163534" stroke-width="1.5" stroke-miterlimit="10"/>
<path d="M1331.89 627.098L1350.6 608.958" stroke="#163534" stroke-width="1.5" stroke-miterlimit="10"/>
<path d="M1331.89 613.314L1350.6 595.175" stroke="#163534" stroke-width="1.5" stroke-miterlimit="10"/>
<path d="M1331.89 599.536L1350.6 581.391" stroke="#163534" stroke-width="1.5" stroke-miterlimit="10"/>
<path d="M1331.89 585.753L1350.6 567.613" stroke="#163534" stroke-width="1.5" stroke-miterlimit="10"/>
<path d="M1331.89 571.969L1350.6 553.829" stroke="#163534" stroke-width="1.5" stroke-miterlimit="10"/>
<path d="M1331.89 558.191L1350.6 540.051" stroke="#163534" stroke-width="1.5" stroke-miterlimit="10"/>
<path d="M1331.89 544.407L1350.6 526.268" stroke="#163534" stroke-width="1.5" stroke-miterlimit="10"/>
<path d="M1331.89 530.624L1350.6 512.484" stroke="#163534" stroke-width="1.5" stroke-miterlimit="10"/>
<path d="M1331.89 516.846L1350.6 498.706" stroke="#163534" stroke-width="1.5" stroke-miterlimit="10"/>
<path d="M1331.89 503.062L1350.6 484.922" stroke="#163534" stroke-width="1.5" stroke-miterlimit="10"/>
<path d="M1331.89 490.265L1350.6 472.125" stroke="#163534" stroke-width="1.5" stroke-miterlimit="10"/>
<path d="M1331.89 477.468L1350.6 459.328" stroke="#163534" stroke-width="1.5" stroke-miterlimit="10"/>
<path d="M1331.89 464.671L1350.6 446.531" stroke="#163534" stroke-width="1.5" stroke-miterlimit="10"/>
<path d="M1331.89 451.874L1350.6 433.734" stroke="#163534" stroke-width="1.5" stroke-miterlimit="10"/>
<path d="M1331.89 439.077L1350.6 420.937" stroke="#163534" stroke-width="1.5" stroke-miterlimit="10"/>
<path d="M1331.89 201.223L1350.6 219.362" stroke="#163534" stroke-width="1.5" stroke-miterlimit="10"/>
<path d="M1331.89 215.006L1350.6 233.146" stroke="#163534" stroke-width="1.5" stroke-miterlimit="10"/>
<path d="M1331.89 228.784L1350.6 246.924" stroke="#163534" stroke-width="1.5" stroke-miterlimit="10"/>
<path d="M1331.89 242.568L1350.6 260.708" stroke="#163534" stroke-width="1.5" stroke-miterlimit="10"/>
<path d="M1331.89 256.352L1350.6 274.491" stroke="#163534" stroke-width="1.5" stroke-miterlimit="10"/>
<path d="M1331.89 270.13L1350.6 288.269" stroke="#163534" stroke-width="1.5" stroke-miterlimit="10"/>
<path d="M1331.89 283.913L1350.6 302.053" stroke="#163534" stroke-width="1.5" stroke-miterlimit="10"/>
<path d="M1331.89 297.691L1350.6 315.831" stroke="#163534" stroke-width="1.5" stroke-miterlimit="10"/>
<path d="M1331.89 311.475L1350.6 329.615" stroke="#163534" stroke-width="1.5" stroke-miterlimit="10"/>
<path d="M1331.89 325.259L1350.6 343.398" stroke="#163534" stroke-width="1.5" stroke-miterlimit="10"/>
<path d="M1331.89 339.036L1350.6 357.176" stroke="#163534" stroke-width="1.5" stroke-miterlimit="10"/>
<path d="M1331.89 351.834L1350.6 369.973" stroke="#163534" stroke-width="1.5" stroke-miterlimit="10"/>
<path d="M1331.89 364.631L1350.6 382.77" stroke="#163534" stroke-width="1.5" stroke-miterlimit="10"/>
<path d="M1331.89 377.434L1350.6 395.573" stroke="#163534" stroke-width="1.5" stroke-miterlimit="10"/>
<path d="M1331.89 390.231L1350.6 408.37" stroke="#163534" stroke-width="1.5" stroke-miterlimit="10"/>
<path d="M1331.89 403.028L1350.6 421.168" stroke="#163534" stroke-width="1.5" stroke-miterlimit="10"/>
<path d="M1331.89 640.876L1313.19 622.736" stroke="#163534" stroke-width="1.5" stroke-miterlimit="10"/>
<path d="M1331.89 627.098L1313.19 608.958" stroke="#163534" stroke-width="1.5" stroke-miterlimit="10"/>
<path d="M1331.89 613.314L1313.19 595.175" stroke="#163534" stroke-width="1.5" stroke-miterlimit="10"/>
<path d="M1331.89 599.536L1313.19 581.391" stroke="#163534" stroke-width="1.5" stroke-miterlimit="10"/>
<path d="M1331.89 585.753L1313.19 567.613" stroke="#163534" stroke-width="1.5" stroke-miterlimit="10"/>
<path d="M1331.89 571.969L1313.19 553.829" stroke="#163534" stroke-width="1.5" stroke-miterlimit="10"/>
<path d="M1331.89 558.191L1313.19 540.051" stroke="#163534" stroke-width="1.5" stroke-miterlimit="10"/>
<path d="M1331.89 544.407L1313.19 526.268" stroke="#163534" stroke-width="1.5" stroke-miterlimit="10"/>
<path d="M1331.89 530.624L1313.19 512.484" stroke="#163534" stroke-width="1.5" stroke-miterlimit="10"/>
<path d="M1331.89 516.846L1313.19 498.706" stroke="#163534" stroke-width="1.5" stroke-miterlimit="10"/>
<path d="M1331.89 503.062L1313.19 484.922" stroke="#163534" stroke-width="1.5" stroke-miterlimit="10"/>
<path d="M1331.89 490.265L1313.19 472.125" stroke="#163534" stroke-width="1.5" stroke-miterlimit="10"/>
<path d="M1331.89 477.468L1313.19 459.328" stroke="#163534" stroke-width="1.5" stroke-miterlimit="10"/>
<path d="M1331.89 464.671L1313.19 446.531" stroke="#163534" stroke-width="1.5" stroke-miterlimit="10"/>
<path d="M1331.89 451.874L1313.19 433.734" stroke="#163534" stroke-width="1.5" stroke-miterlimit="10"/>
<path d="M1331.89 439.077L1313.19 420.937" stroke="#163534" stroke-width="1.5" stroke-miterlimit="10"/>
<path d="M1331.89 201.223L1313.19 219.362" stroke="#163534" stroke-width="1.5" stroke-miterlimit="10"/>
<path d="M1331.89 215.006L1313.19 233.146" stroke="#163534" stroke-width="1.5" stroke-miterlimit="10"/>
<path d="M1331.89 228.784L1313.19 246.924" stroke="#163534" stroke-width="1.5" stroke-miterlimit="10"/>
<path d="M1331.89 242.568L1313.19 260.708" stroke="#163534" stroke-width="1.5" stroke-miterlimit="10"/>
<path d="M1331.89 256.352L1313.19 274.491" stroke="#163534" stroke-width="1.5" stroke-miterlimit="10"/>
<path d="M1331.89 270.13L1313.19 288.269" stroke="#163534" stroke-width="1.5" stroke-miterlimit="10"/>
<path d="M1331.89 283.913L1313.19 302.053" stroke="#163534" stroke-width="1.5" stroke-miterlimit="10"/>
<path d="M1331.89 297.691L1313.19 315.831" stroke="#163534" stroke-width="1.5" stroke-miterlimit="10"/>
<path d="M1331.89 311.475L1313.19 329.615" stroke="#163534" stroke-width="1.5" stroke-miterlimit="10"/>
<path d="M1331.89 325.259L1313.19 343.398" stroke="#163534" stroke-width="1.5" stroke-miterlimit="10"/>
<path d="M1331.89 339.036L1313.19 357.176" stroke="#163534" stroke-width="1.5" stroke-miterlimit="10"/>
<path d="M1331.89 351.834L1313.19 369.973" stroke="#163534" stroke-width="1.5" stroke-miterlimit="10"/>
<path d="M1331.89 364.631L1313.19 382.77" stroke="#163534" stroke-width="1.5" stroke-miterlimit="10"/>
<path d="M1331.89 377.434L1313.19 395.573" stroke="#163534" stroke-width="1.5" stroke-miterlimit="10"/>
<path d="M1331.89 390.231L1313.19 408.37" stroke="#163534" stroke-width="1.5" stroke-miterlimit="10"/>
<path d="M1331.89 403.028L1313.19 421.168" stroke="#163534" stroke-width="1.5" stroke-miterlimit="10"/>
<path d="M1370.63 662.328C1378.35 654.25 1365.62 642.272 1354.82 647.286" stroke="#163534" stroke-width="1.5" stroke-miterlimit="10"/>
<path d="M1370.63 629.239C1378.35 637.316 1365.62 649.288 1354.82 644.274" stroke="#163534" stroke-width="1.5" stroke-miterlimit="10"/>
<path d="M1359.99 639.884V651.042" stroke="#163534" stroke-width="1.5" stroke-miterlimit="10"/>
<path d="M1372.5 646.132H1382.89" stroke="#163534" stroke-width="1.5" stroke-miterlimit="10"/>
<path d="M1370.63 618.028C1378.35 609.951 1365.62 597.973 1354.82 602.987" stroke="#163534" stroke-width="1.5" stroke-miterlimit="10"/>
<path d="M1370.63 584.933C1378.35 593.011 1365.62 604.989 1354.82 599.975" stroke="#163534" stroke-width="1.5" stroke-miterlimit="10"/>
<path d="M1359.99 595.584V606.743" stroke="#163534" stroke-width="1.5" stroke-miterlimit="10"/>
<path d="M1372.5 601.833H1382.89" stroke="#163534" stroke-width="1.5" stroke-miterlimit="10"/>
<path d="M1370.63 573.729C1378.35 565.651 1365.62 553.674 1354.82 558.687" stroke="#163534" stroke-width="1.5" stroke-miterlimit="10"/>
<path d="M1370.63 540.651C1378.35 548.729 1365.62 560.707 1354.82 555.693" stroke="#163534" stroke-width="1.5" stroke-miterlimit="10"/>
<path d="M1359.99 551.285V562.443" stroke="#163534" stroke-width="1.5" stroke-miterlimit="10"/>
<path d="M1372.5 557.533H1382.89" stroke="#163534" stroke-width="1.5" stroke-miterlimit="10"/>
<path d="M1370.63 529.424C1378.35 521.346 1365.62 509.374 1354.82 514.388" stroke="#163534" stroke-width="1.5" stroke-miterlimit="10"/>
<path d="M1370.63 496.335C1378.35 504.412 1365.62 516.39 1354.82 511.376" stroke="#163534" stroke-width="1.5" stroke-miterlimit="10"/>
<path d="M1359.99 506.985V518.144" stroke="#163534" stroke-width="1.5" stroke-miterlimit="10"/>
<path d="M1372.5 513.234H1382.89" stroke="#163534" stroke-width="1.5" stroke-miterlimit="10"/>
<path d="M1370.63 485.124C1378.35 477.047 1365.62 465.075 1354.82 470.088" stroke="#163534" stroke-width="1.5" stroke-miterlimit="10"/>
<path d="M1370.63 452.035C1378.35 460.113 1365.62 472.091 1354.82 467.077" stroke="#163534" stroke-width="1.5" stroke-miterlimit="10"/>
<path d="M1359.99 462.686V473.845" stroke="#163534" stroke-width="1.5" stroke-miterlimit="10"/>
<path d="M1372.5 468.935H1382.89" stroke="#163534" stroke-width="1.5" stroke-miterlimit="10"/>
<path d="M1370.63 440.836C1378.35 432.759 1365.62 420.787 1354.82 425.801" stroke="#163534" stroke-width="1.5" stroke-miterlimit="10"/>
<path d="M1370.63 407.736C1378.35 415.813 1365.62 427.785 1354.82 422.777" stroke="#163534" stroke-width="1.5" stroke-miterlimit="10"/>
<path d="M1359.99 418.387V429.545" stroke="#163534" stroke-width="1.5" stroke-miterlimit="10"/>
<path d="M1372.5 424.635H1382.89" stroke="#163534" stroke-width="1.5" stroke-miterlimit="10"/>
<path d="M1370.63 396.525C1378.35 388.448 1365.62 376.476 1354.82 381.484" stroke="#163534" stroke-width="1.5" stroke-miterlimit="10"/>
<path d="M1370.63 363.436C1378.35 371.514 1365.62 383.486 1354.82 378.472" stroke="#163534" stroke-width="1.5" stroke-miterlimit="10"/>
<path d="M1359.99 374.087V385.246" stroke="#163534" stroke-width="1.5" stroke-miterlimit="10"/>
<path d="M1372.5 380.33H1382.89" stroke="#163534" stroke-width="1.5" stroke-miterlimit="10"/>
<path d="M1370.63 352.226C1378.35 344.148 1365.62 332.171 1354.82 337.185" stroke="#163534" stroke-width="1.5" stroke-miterlimit="10"/>
<path d="M1370.63 319.137C1378.35 327.215 1365.62 339.186 1354.82 334.173" stroke="#163534" stroke-width="1.5" stroke-miterlimit="10"/>
<path d="M1359.99 329.782V340.94" stroke="#163534" stroke-width="1.5" stroke-miterlimit="10"/>
<path d="M1372.5 336.03H1382.89" stroke="#163534" stroke-width="1.5" stroke-miterlimit="10"/>
<path d="M1370.63 307.926C1378.35 299.849 1365.62 287.871 1354.82 292.885" stroke="#163534" stroke-width="1.5" stroke-miterlimit="10"/>
<path d="M1370.63 274.838C1378.35 282.915 1365.62 294.887 1354.82 289.873" stroke="#163534" stroke-width="1.5" stroke-miterlimit="10"/>
<path d="M1359.99 285.483V296.641" stroke="#163534" stroke-width="1.5" stroke-miterlimit="10"/>
<path d="M1372.5 291.731H1382.89" stroke="#163534" stroke-width="1.5" stroke-miterlimit="10"/>
<path d="M1370.63 263.627C1378.35 255.55 1365.62 243.572 1354.82 248.586" stroke="#163534" stroke-width="1.5" stroke-miterlimit="10"/>
<path d="M1370.63 230.532C1378.35 238.61 1365.62 250.588 1354.82 245.574" stroke="#163534" stroke-width="1.5" stroke-miterlimit="10"/>
<path d="M1359.99 241.183V252.342" stroke="#163534" stroke-width="1.5" stroke-miterlimit="10"/>
<path d="M1372.5 247.432H1382.89" stroke="#163534" stroke-width="1.5" stroke-miterlimit="10"/>
<path d="M1370.63 219.328C1378.35 211.25 1365.62 199.272 1354.82 204.286" stroke="#163534" stroke-width="1.5" stroke-miterlimit="10"/>
<path d="M1370.63 186.233C1378.35 194.31 1365.62 206.288 1354.82 201.274" stroke="#163534" stroke-width="1.5" stroke-miterlimit="10"/>
<path d="M1359.99 196.884V208.042" stroke="#163534" stroke-width="1.5" stroke-miterlimit="10"/>
<path d="M1372.5 203.132H1382.89" stroke="#163534" stroke-width="1.5" stroke-miterlimit="10"/>
<path d="M1257.74 28.0059L1245.71 40.1799" stroke="#163534" stroke-width="1.5" stroke-miterlimit="10"/>
<path d="M1247.91 28.0059L1235.87 40.1799" stroke="#163534" stroke-width="1.5" stroke-miterlimit="10"/>
<path d="M1238.07 28.0059L1226.04 40.1799" stroke="#163534" stroke-width="1.5" stroke-miterlimit="10"/>
<path d="M1228.25 28.0059L1216.22 40.1799" stroke="#163534" stroke-width="1.5" stroke-miterlimit="10"/>
<path d="M1218.41 28.0059L1206.38 40.1799" stroke="#163534" stroke-width="1.5" stroke-miterlimit="10"/>
<path d="M1208.58 28.0059L1196.55 40.1799" stroke="#163534" stroke-width="1.5" stroke-miterlimit="10"/>
<path d="M1198.76 28.0059L1186.72 40.1799" stroke="#163534" stroke-width="1.5" stroke-miterlimit="10"/>
<path d="M1188.92 28.0059L1176.89 40.1799" stroke="#163534" stroke-width="1.5" stroke-miterlimit="10"/>
<path d="M1179.09 28.0059L1167.06 40.1799" stroke="#163534" stroke-width="1.5" stroke-miterlimit="10"/>
<path d="M1169.26 28.0059L1157.23 40.1799" stroke="#163534" stroke-width="1.5" stroke-miterlimit="10"/>
<path d="M1159.43 28.0059L1147.4 40.1799" stroke="#163534" stroke-width="1.5" stroke-miterlimit="10"/>
<path d="M1149.6 28.0059L1137.57 40.1799" stroke="#163534" stroke-width="1.5" stroke-miterlimit="10"/>
<path d="M1139.77 28.0059L1127.74 40.1799" stroke="#163534" stroke-width="1.5" stroke-miterlimit="10"/>
<path d="M1129.94 28.0059L1117.91 40.1799" stroke="#163534" stroke-width="1.5" stroke-miterlimit="10"/>
<path d="M1120.11 28.0059L1108.08 40.1799" stroke="#163534" stroke-width="1.5" stroke-miterlimit="10"/>
<path d="M1110.28 28.0059L1098.24 40.1799" stroke="#163534" stroke-width="1.5" stroke-miterlimit="10"/>
<path d="M1100.44 28.0059L1088.41 40.1799" stroke="#163534" stroke-width="1.5" stroke-miterlimit="10"/>
<path d="M1090.62 28.0059L1078.59 40.1799" stroke="#163534" stroke-width="1.5" stroke-miterlimit="10"/>
<path d="M1080.78 28.0059L1068.75 40.1799" stroke="#163534" stroke-width="1.5" stroke-miterlimit="10"/>
<path d="M1070.95 28.0059L1058.92 40.1799" stroke="#163534" stroke-width="1.5" stroke-miterlimit="10"/>
<path d="M1061.12 28.0059L1049.09 40.1799" stroke="#163534" stroke-width="1.5" stroke-miterlimit="10"/>
<path d="M1051.29 28.0059L1039.26 40.1799" stroke="#163534" stroke-width="1.5" stroke-miterlimit="10"/>
<path d="M1041.46 28.0059L1029.43 40.1799" stroke="#163534" stroke-width="1.5" stroke-miterlimit="10"/>
<path d="M1031.63 28.0059L1019.6 40.1799" stroke="#163534" stroke-width="1.5" stroke-miterlimit="10"/>
<path d="M1021.8 28.0059L1009.77 40.1799" stroke="#163534" stroke-width="1.5" stroke-miterlimit="10"/>
<path d="M1011.97 28.0059L999.938 40.1799" stroke="#163534" stroke-width="1.5" stroke-miterlimit="10"/>
<path d="M1002.14 28.0059L990.105 40.1799" stroke="#163534" stroke-width="1.5" stroke-miterlimit="10"/>
<path d="M992.309 28.0059L980.279 40.1799" stroke="#163534" stroke-width="1.5" stroke-miterlimit="10"/>
<path d="M982.477 28.0059L970.446 40.1799" stroke="#163534" stroke-width="1.5" stroke-miterlimit="10"/>
<path d="M972.645 28.0059L960.614 40.1799" stroke="#163534" stroke-width="1.5" stroke-miterlimit="10"/>
<path d="M962.818 28.0059L950.787 40.1799" stroke="#163534" stroke-width="1.5" stroke-miterlimit="10"/>
<path d="M952.986 28.0059L940.955 40.1799" stroke="#163534" stroke-width="1.5" stroke-miterlimit="10"/>
<path d="M943.153 28.0059L931.122 40.1799" stroke="#163534" stroke-width="1.5" stroke-miterlimit="10"/>
<path d="M933.321 28.0059L921.29 40.1799" stroke="#163534" stroke-width="1.5" stroke-miterlimit="10"/>
<path d="M923.494 28.0059L911.463 40.1799" stroke="#163534" stroke-width="1.5" stroke-miterlimit="10"/>
<path d="M913.662 28.0059L901.631 40.1799" stroke="#163534" stroke-width="1.5" stroke-miterlimit="10"/>
<path d="M903.83 28.0059L891.799 40.1799" stroke="#163534" stroke-width="1.5" stroke-miterlimit="10"/>
<path d="M894.003 28.0059L881.972 40.1799" stroke="#163534" stroke-width="1.5" stroke-miterlimit="10"/>
<path d="M884.171 28.0059L872.14 40.1799" stroke="#163534" stroke-width="1.5" stroke-miterlimit="10"/>
<path d="M874.338 28.0059L862.307 40.1799" stroke="#163534" stroke-width="1.5" stroke-miterlimit="10"/>
<path d="M864.506 28.0059L852.475 40.1799" stroke="#163534" stroke-width="1.5" stroke-miterlimit="10"/>
<path d="M854.679 28.0059L842.648 40.1799" stroke="#163534" stroke-width="1.5" stroke-miterlimit="10"/>
<path d="M844.847 28.0059L832.816 40.1799" stroke="#163534" stroke-width="1.5" stroke-miterlimit="10"/>
<path d="M835.014 28.0059L822.984 40.1799" stroke="#163534" stroke-width="1.5" stroke-miterlimit="10"/>
<path d="M825.188 28.0059L813.157 40.1799" stroke="#163534" stroke-width="1.5" stroke-miterlimit="10"/>
<path d="M815.355 28.0059L803.324 40.1799" stroke="#163534" stroke-width="1.5" stroke-miterlimit="10"/>
</g>
</svg>
