<svg width="39" height="38" viewBox="0 0 39 38" fill="none" xmlns="http://www.w3.org/2000/svg">
<path d="M6.49589 14.1759L5.91715 13.3604L5.91714 13.3604L6.49589 14.1759ZM16.7698 6.88471L17.3486 7.70022L17.3486 7.70022L16.7698 6.88471ZM16.7432 31.096L17.3348 30.2898L17.3348 30.2898L16.7432 31.096ZM6.50439 23.582L7.09604 22.7758L7.09604 22.7758L6.50439 23.582ZM4.50649 15.557H5.30045V13.557H4.50649V15.557ZM7.07464 14.9914L17.3486 7.70022L16.1911 6.0692L5.91715 13.3604L7.07464 14.9914ZM19.0308 8.5692V29.4307H21.0308V8.5692H19.0308ZM17.3348 30.2898L7.09604 22.7758L5.91275 24.3882L16.1515 31.9022L17.3348 30.2898ZM5.2823 22.1817H4.50649V24.1817H5.2823V22.1817ZM3.44092 21.1161V16.6225H1.44092V21.1161H3.44092ZM4.50649 22.1817C3.91799 22.1817 3.44092 21.7046 3.44092 21.1161H1.44092C1.44092 22.8092 2.81342 24.1817 4.50649 24.1817V22.1817ZM7.09604 22.7758C6.57008 22.3898 5.9347 22.1817 5.2823 22.1817V24.1817C5.50907 24.1817 5.72993 24.2541 5.91275 24.3882L7.09604 22.7758ZM19.0308 29.4307C19.0308 30.3037 18.0386 30.8063 17.3348 30.2898L16.1515 31.9022C18.1763 33.3881 21.0308 31.9422 21.0308 29.4307H19.0308ZM17.3486 7.70022C18.0542 7.19947 19.0308 7.70398 19.0308 8.5692H21.0308C21.0308 6.08003 18.221 4.62861 16.1911 6.0692L17.3486 7.70022ZM5.30045 15.557C5.93618 15.557 6.55619 15.3593 7.07464 14.9914L5.91714 13.3604C5.73694 13.4883 5.52142 13.557 5.30045 13.557V15.557ZM4.50649 13.557C2.81342 13.557 1.44092 14.9295 1.44092 16.6225H3.44092C3.44092 16.034 3.91799 15.557 4.50649 15.557V13.557Z" fill="#102525"/>
</svg>
