<svg width="38" height="38" viewBox="0 0 38 38" fill="none" xmlns="http://www.w3.org/2000/svg">
<path d="M6.49589 14.1759L5.91715 13.3604L6.49589 14.1759ZM16.7698 6.88471L17.3486 7.70022V7.70022L16.7698 6.88471ZM16.7432 31.096L17.3348 30.2898L16.7432 31.096ZM6.50439 23.582L7.09604 22.7758L6.50439 23.582ZM24.8233 13.7364C24.4328 13.3459 23.7996 13.3459 23.4091 13.7364C23.0186 14.1269 23.0186 14.7601 23.4091 15.1506L24.8233 13.7364ZM23.3899 22.7362C23.0103 23.1374 23.0277 23.7703 23.4288 24.1499C23.83 24.5296 24.4629 24.5121 24.8425 24.111L23.3899 22.7362ZM29.0135 12.1573C28.691 11.709 28.0661 11.6069 27.6177 11.9294C27.1694 12.2519 27.0673 12.8768 27.3898 13.3252L29.0135 12.1573ZM27.4082 24.5172C27.0721 24.9554 27.1548 25.5831 27.593 25.9193C28.0311 26.2555 28.6589 26.1728 28.9951 25.7346L27.4082 24.5172ZM4.50649 15.557H5.30045V13.557H4.50649V15.557ZM7.07464 14.9914L17.3486 7.70022L16.1911 6.0692L5.91715 13.3604L7.07464 14.9914ZM19.0308 8.5692V29.4307H21.0308V8.5692H19.0308ZM17.3348 30.2898L7.09604 22.7758L5.91275 24.3882L16.1515 31.9022L17.3348 30.2898ZM5.2823 22.1817H4.50649V24.1817H5.2823V22.1817ZM3.44092 21.1161V16.6225H1.44092V21.1161H3.44092ZM4.50649 22.1817C3.91799 22.1817 3.44092 21.7046 3.44092 21.1161H1.44092C1.44092 22.8092 2.81342 24.1817 4.50649 24.1817V22.1817ZM7.09604 22.7758C6.57008 22.3898 5.9347 22.1817 5.2823 22.1817V24.1817C5.50907 24.1817 5.72993 24.2541 5.91275 24.3882L7.09604 22.7758ZM19.0308 29.4307C19.0308 30.3037 18.0386 30.8063 17.3348 30.2898L16.1515 31.9022C18.1763 33.3881 21.0308 31.9422 21.0308 29.4307H19.0308ZM17.3486 7.70022C18.0542 7.19947 19.0308 7.70398 19.0308 8.5692H21.0308C21.0308 6.08003 18.221 4.62861 16.1911 6.0692L17.3486 7.70022ZM5.30045 15.557C5.93618 15.557 6.55619 15.3593 7.07464 14.9914L5.91715 13.3604C5.73694 13.4883 5.52142 13.557 5.30045 13.557V15.557ZM4.50649 13.557C2.81342 13.557 1.44092 14.9295 1.44092 16.6225H3.44092C3.44092 16.034 3.91799 15.557 4.50649 15.557V13.557ZM23.4091 15.1506C24.3215 16.0629 24.8185 17.4351 24.8185 18.8854C24.8185 20.3342 24.3216 21.7519 23.3899 22.7362L24.8425 24.111C26.1805 22.6973 26.8185 20.7598 26.8185 18.8854C26.8185 17.0125 26.1807 15.0937 24.8233 13.7364L23.4091 15.1506ZM27.3898 13.3252C28.4147 14.7499 29.0349 16.7707 29.0743 18.8617C29.1137 20.9505 28.5722 23 27.4082 24.5172L28.9951 25.7346C30.498 23.7755 31.1197 21.2499 31.0739 18.824C31.0283 16.4003 30.315 13.9668 29.0135 12.1573L27.3898 13.3252Z" fill="#183E3C"/>
</svg>
