<svg width="334" height="314" viewBox="0 0 334 314" fill="none" xmlns="http://www.w3.org/2000/svg">
<rect x="320.886" y="229.245" width="17.5632" height="17.5632" rx="4" transform="rotate(45 320.886 229.245)" fill="#33B174" fill-opacity="0.8"/>
<rect x="55.9416" y="117.581" width="17.5632" height="17.5632" rx="4" transform="rotate(45 55.9416 117.581)" fill="#33B174" fill-opacity="0.8"/>
<rect x="304.275" y="45.1006" width="12.8239" height="12.8239" rx="4" transform="rotate(45 304.275 45.1006)" fill="#33B174" fill-opacity="0.8"/>
<rect x="297.737" y="159.932" width="12.8239" height="12.8239" rx="4" transform="rotate(45 297.737 159.932)" fill="#33B174" fill-opacity="0.8"/>
<rect x="276.906" y="294.988" width="12.8239" height="12.8239" rx="4" transform="rotate(45 276.906 294.988)" fill="#33B174" fill-opacity="0.8"/>
<rect x="49.4041" y="254.083" width="12.8239" height="12.8239" rx="4" transform="rotate(45 49.4041 254.083)" fill="#33B174" fill-opacity="0.8"/>
<circle cx="297.737" cy="95.4952" r="2.53035" fill="#33B174" fill-opacity="0.8"/>
<circle cx="25.7277" cy="245.874" r="2.53035" fill="#33B174" fill-opacity="0.8"/>
<circle cx="329.889" cy="42.5701" r="2.53035" fill="#33B174" fill-opacity="0.8"/>
<circle cx="3.51076" cy="174.53" r="2.53035" fill="#33B174" fill-opacity="0.8"/>
<circle cx="220.234" cy="3.46968" r="2.53035" fill="#33B174" fill-opacity="0.8"/>
<circle cx="228.29" cy="14.2767" r="2.53035" fill="#33B174" fill-opacity="0.8"/>
<circle cx="6.04109" cy="42.5701" r="2.53035" fill="#33B174" fill-opacity="0.8"/>
<circle cx="40.3362" cy="103.334" r="2.53035" fill="#33B174" fill-opacity="0.8"/>
<circle cx="165.47" cy="269.689" r="2.53035" fill="#33B174" fill-opacity="0.8"/>
<circle cx="267.839" cy="202.792" r="2.53035" fill="#33B174" fill-opacity="0.8"/>
<circle cx="68.3607" cy="12.9905" r="3.81644" fill="#33B174" fill-opacity="0.8"/>
<circle cx="317.07" cy="160.123" r="3.81644" fill="#33B174" fill-opacity="0.8"/>
<circle cx="12.3879" cy="12.9905" r="3.81644" fill="#33B174" fill-opacity="0.8"/>
</svg>
