<svg width="32" height="33" viewBox="0 0 32 33" fill="none" xmlns="http://www.w3.org/2000/svg">
<path d="M15.2611 7.93664L15.9998 8.74618L16.7385 7.93664C18.0977 6.44712 20.0005 5.56961 22.0153 5.50261C25.506 5.51098 28.3332 8.34329 28.3332 11.8359C28.3332 14.0878 26.9443 16.6057 25.0077 19.0499C23.4149 21.0602 21.5711 22.8784 20.1157 24.3137C19.8241 24.6013 19.548 24.8735 19.2927 25.1288L16.2527 28.1688L16.2523 28.1693L15.7474 28.1693L15.7469 28.1688L12.7069 25.1288C12.4516 24.8735 12.1756 24.6013 11.8839 24.3137C10.4285 22.8784 8.58475 21.0602 6.99197 19.0499C5.05538 16.6057 3.6665 14.0878 3.6665 11.8359C3.6665 8.34329 6.49366 5.51098 9.98433 5.50261C11.9992 5.56961 13.902 6.44712 15.2611 7.93664Z" stroke="#33B174" stroke-width="2"/>
</svg>
