<svg width="789" height="634" viewBox="0 0 789 634" fill="none" xmlns="http://www.w3.org/2000/svg">
<path d="M331.277 581.182C330.167 580.073 328.847 579.195 327.393 578.597C325.94 577.999 324.382 577.694 322.809 577.699H30.0578C29.219 577.699 28.3884 577.536 27.6133 577.217C26.8382 576.899 26.1338 576.431 25.5404 575.842L4.06294 554.492C2.86778 553.303 2.19612 551.691 2.19533 550.01L1 28.689C1.00078 27.0079 1.67245 25.3958 2.86761 24.2064L24.3451 2.85652C24.9385 2.26729 25.6429 1.80006 26.418 1.48151C27.1931 1.16297 28.0237 0.999346 28.8625 1H758.942C759.781 0.999346 760.612 1.16297 761.387 1.48151C762.162 1.80006 762.866 2.26729 763.46 2.85652L784.937 24.2064C786.132 25.3958 786.804 27.0079 786.805 28.689L788 550.01C787.999 551.691 787.328 553.303 786.132 554.492L764.655 575.842C764.062 576.431 763.357 576.899 762.582 577.217C761.807 577.536 760.976 577.699 760.138 577.699H468.436C466.863 577.694 465.305 577.999 463.851 578.597C462.398 579.195 461.078 580.073 459.968 581.182L395.706 625.322C395.49 625.537 395.234 625.707 394.952 625.824C394.67 625.94 394.367 626 394.062 626C393.757 626 393.454 625.94 393.172 625.824C392.89 625.707 392.634 625.537 392.418 625.322L331.277 581.182Z" stroke="#183E3C" stroke-miterlimit="10"/>
<path d="M386.083 610.678L393.639 618.915C393.664 618.942 393.694 618.963 393.727 618.978C393.76 618.993 393.795 619 393.831 619C393.867 619 393.902 618.993 393.935 618.978C393.968 618.963 393.998 618.942 394.023 618.915L401.912 610.684C401.955 610.634 401.983 610.572 401.994 610.506C402.006 610.44 402 610.372 401.977 610.309C401.954 610.247 401.915 610.192 401.865 610.152C401.814 610.111 401.755 610.087 401.692 610.081C394.283 609.586 394.012 602 394.012 602C394.012 602 393.016 609.55 386.304 610.081C386.242 610.088 386.183 610.112 386.134 610.152C386.084 610.192 386.046 610.246 386.024 610.308C386.001 610.369 385.994 610.436 386.005 610.502C386.015 610.567 386.042 610.628 386.083 610.678V610.678Z" stroke="#183E3C" stroke-miterlimit="10"/>
<path d="M778.005 571.437H485.27C484.215 571.439 483.204 571.856 482.457 572.595L396.785 631.846C396.41 632.216 395.965 632.509 395.476 632.707C394.987 632.905 394.463 633.004 393.934 633C393.406 632.995 392.884 632.887 392.398 632.681C391.912 632.475 391.472 632.175 391.104 631.799L308.132 572.651C307.76 572.272 307.315 571.971 306.824 571.765C306.332 571.559 305.805 571.453 305.271 571.453H9.99528C8.93567 571.453 7.91945 571.035 7.17019 570.291C6.42093 569.547 6 568.538 6 567.486V9.96684C6 8.91477 6.42093 7.90579 7.17019 7.16186C7.91945 6.41793 8.93567 6 9.99528 6H778.005C779.064 6 780.08 6.41793 780.83 7.16186C781.579 7.90579 782 8.91477 782 9.96684V567.47C782 568.522 781.579 569.531 780.83 570.275C780.08 571.019 779.064 571.437 778.005 571.437Z" stroke="#183E3C" stroke-miterlimit="10"/>
<path d="M6.5 576C9.53757 576 12 573.314 12 570C12 566.686 9.53757 564 6.5 564C3.46243 564 1 566.686 1 570C1 573.314 3.46243 576 6.5 576Z" stroke="#183E3C" stroke-miterlimit="10"/>
<path d="M779.5 576C782.538 576 785 573.314 785 570C785 566.686 782.538 564 779.5 564C776.462 564 774 566.686 774 570C774 573.314 776.462 576 779.5 576Z" stroke="#183E3C" stroke-miterlimit="10"/>
<path d="M6.5 13C9.53757 13 12 10.3137 12 7C12 3.68629 9.53757 1 6.5 1C3.46243 1 1 3.68629 1 7C1 10.3137 3.46243 13 6.5 13Z" stroke="#183E3C" stroke-miterlimit="10"/>
<path d="M780.5 13C783.538 13 786 10.3137 786 7C786 3.68629 783.538 1 780.5 1C777.462 1 775 3.68629 775 7C775 10.3137 777.462 13 780.5 13Z" stroke="#183E3C" stroke-miterlimit="10"/>
<path d="M392.093 594.23C392.173 595.314 392.563 595.776 393 595.896L392.967 596C392.45 595.927 391.929 595.887 391.408 595.881C390.817 595.888 390.228 595.928 389.641 596L389.608 595.896C390.045 595.776 390.6 595.314 390.515 594.23L390.111 584.938L384.981 596L379.889 584.749L379.353 594.3C379.384 594.653 379.509 594.991 379.712 595.273C379.916 595.555 380.19 595.771 380.504 595.896L380.472 596C379.895 595.918 379.315 595.878 378.733 595.881C378.164 595.868 377.595 595.908 377.033 596L377 595.896C377.337 595.765 377.629 595.529 377.837 595.219C378.045 594.91 378.159 594.54 378.165 594.161L378.785 582.845C378.502 582.558 378.186 582.31 377.846 582.104L377.878 582C378.28 582.119 378.698 582.166 379.114 582.139C379.527 582.149 379.94 582.109 380.345 582.02C380.388 582.331 380.481 582.632 380.622 582.91L385.197 592.734L389.66 583.084C389.74 582.937 389.783 582.771 389.783 582.602C389.783 582.432 389.74 582.266 389.66 582.119V582.02C390.113 582.124 390.578 582.164 391.041 582.139C391.488 582.162 391.936 582.115 392.371 582L392.403 582.104C392.112 582.313 391.873 582.594 391.709 582.924C391.545 583.254 391.461 583.621 391.464 583.994L392.093 594.23Z" fill="#183E3C"/>
<path d="M411 582.119C410.267 582.447 409.574 583.531 409.146 584.665L404.965 596H404.812L401.059 585.56L397.203 596H397.05L393.071 584.923C392.747 583.762 392.009 582.763 391 582.119V582C391.604 582.082 392.211 582.128 392.82 582.139C393.372 582.138 393.923 582.092 394.468 582V582.119C394.197 582.278 394.064 582.979 394.384 583.924L397.272 592.291L400.331 583.839C399.967 583.134 399.415 582.545 398.737 582.139V582.02C399.341 582.102 399.949 582.148 400.557 582.159C401.109 582.158 401.661 582.112 402.205 582.02V582.139C401.935 582.298 401.797 582.999 402.121 583.944L405.009 592.311L408.019 584.013C408.359 583.069 407.881 582.209 407.39 582.124V582.005C407.964 582.101 408.544 582.152 409.126 582.159C409.717 582.165 410.308 582.119 410.892 582.02L411 582.119Z" fill="#183E3C"/>
<path d="M334 571H453" stroke="#183E3C" stroke-miterlimit="10"/>
<path d="M340 575H447" stroke="#183E3C" stroke-miterlimit="10"/>
</svg>
