<svg width="311" height="271" viewBox="0 0 311 271" fill="none" xmlns="http://www.w3.org/2000/svg">
<path d="M130.732 249.388C130.294 248.951 129.774 248.605 129.201 248.37C128.628 248.134 128.014 248.014 127.394 248.015H12.0074C11.6768 248.016 11.3494 247.951 11.0439 247.826C10.7384 247.7 10.4608 247.516 10.2269 247.284L1.76163 238.869C1.29056 238.4 1.02583 237.764 1.02552 237.102L0.554382 11.625C0.554691 10.9624 0.819427 10.3269 1.29049 9.85816L9.75577 1.44317C9.98966 1.21092 10.2673 1.02677 10.5728 0.901212C10.8783 0.775658 11.2057 0.711168 11.5363 0.711427H299.295C299.625 0.711168 299.953 0.775658 300.258 0.901212C300.564 1.02677 300.841 1.21092 301.075 1.44317L309.541 9.85816C310.012 10.3269 310.276 10.9624 310.277 11.625L310.748 237.102C310.748 237.764 310.483 238.4 310.012 238.869L301.547 247.284C301.313 247.516 301.035 247.7 300.73 247.826C300.424 247.951 300.097 248.016 299.766 248.015H184.793C184.173 248.014 183.559 248.134 182.986 248.37C182.413 248.605 181.893 248.951 181.455 249.388L156.127 266.786C156.042 266.871 155.941 266.938 155.829 266.984C155.718 267.03 155.599 267.053 155.479 267.053C155.358 267.053 155.239 267.03 155.128 266.984C155.017 266.938 154.916 266.871 154.831 266.786L130.732 249.388Z" stroke="#183E3C" stroke-width="0.5" stroke-miterlimit="10"/>
<path d="M152.334 261.014L155.312 264.261C155.322 264.271 155.333 264.28 155.346 264.286C155.359 264.291 155.373 264.294 155.387 264.294C155.401 264.294 155.415 264.291 155.428 264.286C155.441 264.28 155.453 264.271 155.463 264.261L158.573 261.016C158.589 260.997 158.601 260.973 158.605 260.946C158.61 260.92 158.607 260.894 158.598 260.869C158.589 260.844 158.574 260.823 158.554 260.807C158.534 260.791 158.51 260.781 158.486 260.779C155.566 260.584 155.459 257.594 155.459 257.594C155.459 257.594 155.066 260.57 152.421 260.779C152.396 260.781 152.373 260.791 152.354 260.807C152.334 260.823 152.319 260.844 152.31 260.868C152.301 260.892 152.299 260.919 152.303 260.945C152.307 260.97 152.318 260.994 152.334 261.014V261.014Z" stroke="#183E3C" stroke-width="0.5" stroke-miterlimit="10"/>
<path d="M306.808 245.547H191.428C191.012 245.548 190.614 245.712 190.319 246.004L156.552 269.357C156.404 269.503 156.229 269.618 156.036 269.697C155.843 269.775 155.636 269.814 155.428 269.812C155.22 269.81 155.014 269.768 154.823 269.686C154.631 269.605 154.458 269.487 154.313 269.339L121.61 246.026C121.463 245.876 121.287 245.758 121.094 245.677C120.9 245.595 120.692 245.554 120.482 245.554H4.09988C3.68223 245.554 3.28169 245.389 2.98637 245.096C2.69105 244.802 2.52515 244.405 2.52515 243.99V4.24564C2.52515 3.83097 2.69105 3.43329 2.98637 3.14007C3.28169 2.84686 3.68223 2.68213 4.09988 2.68213H306.808C307.226 2.68213 307.627 2.84686 307.922 3.14007C308.217 3.43329 308.383 3.83097 308.383 4.24564V243.984C308.383 244.399 308.217 244.796 307.922 245.089C307.627 245.383 307.226 245.547 306.808 245.547Z" stroke="#183E3C" stroke-width="0.5" stroke-miterlimit="10"/>
<path d="M2.72219 247.346C3.91944 247.346 4.89 246.287 4.89 244.981C4.89 243.675 3.91944 242.616 2.72219 242.616C1.52494 242.616 0.554382 243.675 0.554382 244.981C0.554382 246.287 1.52494 247.346 2.72219 247.346Z" stroke="#183E3C" stroke-width="0.5" stroke-miterlimit="10"/>
<path d="M307.398 247.346C308.595 247.346 309.566 246.287 309.566 244.981C309.566 243.675 308.595 242.616 307.398 242.616C306.2 242.616 305.23 243.675 305.23 244.981C305.23 246.287 306.2 247.346 307.398 247.346Z" stroke="#183E3C" stroke-width="0.5" stroke-miterlimit="10"/>
<path d="M2.72219 5.44119C3.91944 5.44119 4.89 4.38239 4.89 3.07631C4.89 1.77022 3.91944 0.711426 2.72219 0.711426C1.52494 0.711426 0.554382 1.77022 0.554382 3.07631C0.554382 4.38239 1.52494 5.44119 2.72219 5.44119Z" stroke="#183E3C" stroke-width="0.5" stroke-miterlimit="10"/>
<path d="M307.792 5.44119C308.989 5.44119 309.96 4.38239 309.96 3.07631C309.96 1.77022 308.989 0.711426 307.792 0.711426C306.595 0.711426 305.624 1.77022 305.624 3.07631C305.624 4.38239 306.595 5.44119 307.792 5.44119Z" stroke="#183E3C" stroke-width="0.5" stroke-miterlimit="10"/>
<path d="M154.703 254.531C154.734 254.958 154.888 255.141 155.06 255.188L155.047 255.229C154.843 255.2 154.638 255.184 154.432 255.182C154.2 255.185 153.967 255.2 153.736 255.229L153.723 255.188C153.895 255.141 154.114 254.958 154.08 254.531L153.921 250.869L151.899 255.229L149.892 250.794L149.681 254.559C149.693 254.698 149.742 254.831 149.823 254.942C149.903 255.053 150.011 255.138 150.135 255.188L150.122 255.229C149.895 255.196 149.666 255.181 149.437 255.182C149.213 255.177 148.988 255.192 148.767 255.229L148.754 255.188C148.886 255.136 149.002 255.043 149.084 254.921C149.165 254.799 149.211 254.653 149.213 254.504L149.457 250.044C149.346 249.931 149.221 249.833 149.087 249.752L149.1 249.711C149.258 249.758 149.423 249.776 149.587 249.766C149.75 249.769 149.912 249.754 150.072 249.719C150.089 249.841 150.126 249.96 150.181 250.069L151.985 253.941L153.744 250.138C153.775 250.08 153.792 250.015 153.792 249.948C153.792 249.881 153.775 249.815 153.744 249.758V249.719C153.922 249.76 154.105 249.775 154.288 249.766C154.464 249.775 154.641 249.756 154.812 249.711L154.825 249.752C154.71 249.834 154.616 249.945 154.551 250.075C154.487 250.205 154.453 250.35 154.454 250.496L154.703 254.531Z" fill="#183E3C"/>
<path d="M162.155 249.758C161.866 249.887 161.592 250.314 161.424 250.761L159.776 255.229H159.716L158.236 251.114L156.716 255.229H156.656L155.088 250.863C154.96 250.405 154.669 250.012 154.272 249.758V249.711C154.51 249.743 154.749 249.761 154.989 249.766C155.207 249.765 155.424 249.747 155.638 249.711V249.758C155.532 249.82 155.48 250.097 155.606 250.469L156.744 253.767L157.949 250.436C157.806 250.158 157.588 249.926 157.321 249.766V249.719C157.559 249.751 157.799 249.769 158.039 249.773C158.256 249.773 158.473 249.755 158.688 249.719V249.766C158.581 249.828 158.527 250.105 158.655 250.477L159.793 253.775L160.98 250.504C161.113 250.132 160.925 249.793 160.732 249.76V249.713C160.958 249.75 161.187 249.771 161.416 249.773C161.649 249.776 161.882 249.758 162.112 249.719L162.155 249.758Z" fill="#183E3C"/>
<path d="M131.805 245.375H178.709" stroke="#183E3C" stroke-width="0.5" stroke-miterlimit="10"/>
<path d="M134.17 246.952H176.344" stroke="#183E3C" stroke-width="0.5" stroke-miterlimit="10"/>
</svg>
