<svg width="32" height="32" viewBox="0 0 32 32" fill="none" xmlns="http://www.w3.org/2000/svg">
<path d="M25.1386 13.1911L25.2448 13.3337L13.6898 27.9125C13.6898 27.9125 13.6897 27.9125 13.6896 27.9127C13.6876 27.9149 13.6665 27.9377 13.6114 27.9616C13.555 27.9862 13.4786 28.0046 13.3904 28.0055H13.2566L14.1525 20.0131L14.2771 18.9017H13.1588H7.16016C7.06949 18.9005 6.99192 18.8808 6.93579 18.8554C6.88175 18.831 6.86313 18.8088 6.86305 18.8089L6.74872 18.6553L18.2952 4.08738C18.2952 4.08738 18.2953 4.08733 18.2954 4.08722C18.2973 4.08507 18.3195 4.06101 18.3779 4.03637C18.4379 4.01108 18.5185 3.99308 18.6104 3.99436L18.6104 3.99446H18.6243H18.7611L17.8494 11.985L17.7224 13.0983H18.8429H24.8415C24.9322 13.0995 25.0098 13.1192 25.0659 13.1446C25.121 13.1695 25.1393 13.1921 25.1386 13.1911Z" stroke="#33B174" stroke-width="2"/>
</svg>
