<svg width="290" height="46" viewBox="0 0 290 46" fill="none" xmlns="http://www.w3.org/2000/svg">
<rect x="4.22412" y="3.94702" width="281.76" height="38.6222" stroke="#4E928E" stroke-width="0.75"/>
<path d="M1.16833 7.38146C4.1661 7.32875 6.23615 6.6396 7.5711 5.49177C8.87216 4.37306 9.42351 2.86376 9.49503 1.23129L281.458 1.2312C281.518 2.78141 281.964 4.23284 283.12 5.34053C284.312 6.48275 286.201 7.20374 289.024 7.35488V38.9749C286.201 39.1261 284.312 39.8471 283.12 40.9893C281.964 42.097 281.518 43.5484 281.458 45.0986L9.49503 45.0987C9.42351 43.4662 8.87216 41.9569 7.5711 40.8382C6.23615 39.6904 4.1661 39.0012 1.16833 38.9485V7.38146Z" stroke="#4E928E" stroke-width="0.75"/>
</svg>
