<svg width="460" height="45" viewBox="0 0 460 45" fill="none" xmlns="http://www.w3.org/2000/svg">
<path d="M3.875 3.09082H457.383V41.7131H3.875V3.09082Z" stroke="#4E928E" stroke-width="0.75"/>
<path d="M1.0402 6.52517C4.03796 6.47246 6.10801 5.78331 7.44296 4.63547C8.74403 3.51677 9.29537 2.00747 9.36689 0.375H452.056C452.116 1.92521 452.563 3.37664 453.719 4.48432C454.911 5.62655 456.8 6.34754 459.623 6.49868V38.1187C456.8 38.2699 454.911 38.9909 453.719 40.1331C452.563 41.2408 452.116 42.6922 452.056 44.2424H9.36689C9.29537 42.6099 8.74403 41.1006 7.44296 39.9819C6.10801 38.8341 4.03796 38.1449 1.0402 38.0922V6.52517Z" stroke="#4E928E" stroke-width="0.75"/>
</svg>
