<svg width="21" height="21" viewBox="0 0 21 21" fill="none" xmlns="http://www.w3.org/2000/svg">
<path d="M10.1568 20.6291C8.5943 20.6291 7.24013 19.6561 6.71929 18.1426C6.61513 17.9264 6.7193 17.8183 6.82346 17.6021C6.92763 17.494 7.03179 17.3859 7.24013 17.3859H13.0735C13.2818 17.3859 13.386 17.494 13.4901 17.6021C13.5943 17.7102 13.5943 17.9264 13.5943 18.1426C13.0735 19.6561 11.7193 20.6291 10.1568 20.6291Z" fill="#215653"/>
<path d="M17.9693 18.467H2.34432C2.13599 18.467 1.92765 18.3589 1.82349 18.1427C1.82349 17.9264 1.82349 17.7102 1.92765 17.6021L3.07349 16.0886C3.59432 15.44 3.90682 14.5751 3.90682 13.7102V9.81834C3.90682 6.25077 6.71932 3.33185 10.1568 3.33185C13.5943 3.33185 16.4068 6.25077 16.4068 9.81834V13.7102C16.4068 14.5751 16.7193 15.44 17.2402 16.0886L18.386 17.6021C18.4902 17.8183 18.4902 18.0346 18.4902 18.1427C18.386 18.3589 18.1777 18.467 17.9693 18.467Z" fill="#215653"/>
<ellipse cx="9.76583" cy="2.22799" rx="1.48568" ry="1.54189" fill="#215653"/>
</svg>
