<svg width="18" height="18" viewBox="0 0 18 18" fill="none" xmlns="http://www.w3.org/2000/svg">
<path d="M12.8659 9.34834C13.8726 8.35795 14.4962 6.98352 14.4962 5.46429C14.4962 2.44644 12.0354 0 8.99996 0C5.96446 0 3.50371 2.44644 3.50371 5.46429C3.50371 6.98353 4.12735 8.35797 5.134 9.34837C2.53589 10.5525 0.600302 12.9328 0.0198016 15.8006C-0.110218 16.443 0.418039 17 1.07708 17H16.9229C17.582 17 18.1102 16.443 17.9802 15.8006C17.3997 12.9328 15.4641 10.5525 12.8659 9.34834Z" fill="#EDE3D9"/>
<path fill-rule="evenodd" clip-rule="evenodd" d="M13.3015 4.46426C13.3015 5.9835 12.6433 7.35792 11.5807 8.34832C12.0989 8.57586 12.5922 8.8454 13.0556 9.15228C13.9503 8.18032 14.4962 6.88567 14.4962 5.46426C14.4962 3.4306 13.3787 1.65642 11.721 0.715515C12.7009 1.69396 13.3015 3.01304 13.3015 4.46426ZM14.4964 10.3208C15.7323 11.5407 16.6121 13.0832 16.9791 14.8006C17.1163 15.4429 16.5587 16 15.8631 16H0C0.0023905 16.554 0.487377 17 1.07708 17H16.9229C17.582 17 18.1102 16.4429 17.9802 15.8006C17.529 13.5718 16.2594 11.6374 14.4964 10.3208Z" fill="black" fill-opacity="0.1"/>
</svg>
